<svg width="340" height="128" viewBox="0 0 340 128" fill="none" xmlns="http://www.w3.org/2000/svg">
<path d="M298.333 43.3873C294.764 39.7459 288.973 39.7459 285.404 43.3873C285.085 43.7122 284.804 44.0673 284.537 44.4223C284.271 44.0597 283.989 43.7122 283.671 43.3873C280.102 39.7459 274.311 39.7459 270.741 43.3873C268.957 45.208 268.061 47.5954 268.061 49.9827C268.061 56.8576 273.207 64.2991 284.53 75.7371C295.853 64.2991 300.999 56.8576 300.999 49.9827C300.999 47.5954 300.103 45.208 298.319 43.3873H298.333Z" fill="white"/>
<g filter="url(#filter0_d_3164_464)">
<g filter="url(#filter1_f_3164_464)">
<path d="M297.001 43.6715C293.432 40.0301 287.641 40.0301 284.072 43.6715C283.753 43.9964 283.472 44.3514 283.205 44.7065C282.939 44.3439 282.657 43.9964 282.339 43.6715C278.77 40.0301 272.979 40.0301 269.409 43.6715C267.625 45.4922 266.729 47.8795 266.729 50.2669C266.729 57.1418 271.875 64.5833 283.198 76.0213C294.521 64.5833 299.667 57.1418 299.667 50.2669C299.667 47.8795 298.771 45.4922 296.986 43.6715H297.001Z" fill="white"/>
</g>
</g>
<path d="M189.729 58.5869C198.993 61.4502 206.235 69.2241 208.908 79.1738C211.574 69.2241 218.816 61.4502 228.088 58.5869C218.824 55.7236 211.582 47.9497 208.908 38C206.242 47.9497 199 55.7236 189.729 58.5869Z" fill="#17CF8D"/>
<g filter="url(#filter2_f_3164_464)">
<path d="M189.887 67.2773C199.151 70.1406 206.393 77.9145 209.066 87.8642C211.732 77.9145 218.975 70.1406 228.246 67.2773C218.982 64.4141 211.74 56.6401 209.066 46.6904C206.401 56.6401 199.158 64.4141 189.887 67.2773Z" fill="#17CF8D"/>
</g>
<path d="M134.33 39.9922C134.33 39.9922 119.072 51.55 119.072 62.7338C119.072 66.8193 122.343 70.1285 126.38 70.1285C129.881 70.1285 132.803 67.6378 133.521 64.3144C133.305 72.4782 131.464 76.486 131.464 76.486H137.203C137.203 76.486 135.362 72.4782 135.146 64.3144C135.864 67.6378 138.786 70.1285 142.286 70.1285C146.324 70.1285 149.594 66.8193 149.594 62.7338C149.594 51.55 134.337 39.9922 134.337 39.9922H134.33Z" fill="#F24E1E"/>
<g filter="url(#filter3_f_3164_464)">
<path d="M134.095 47.3906C134.095 47.3906 118.838 58.9484 118.838 70.1323C118.838 74.2177 122.108 77.527 126.146 77.527C129.647 77.527 132.568 75.0362 133.287 71.7128C133.07 79.8767 131.229 83.8845 131.229 83.8845H136.968C136.968 83.8845 135.128 79.8767 134.911 71.7128C135.63 75.0362 138.551 77.527 142.052 77.527C146.09 77.527 149.36 74.2177 149.36 70.1323C149.36 58.9484 134.102 47.3906 134.102 47.3906H134.095Z" fill="#F24E1E"/>
</g>
<path d="M77.9066 56.4185C74.9406 53.7112 70.5693 53.2235 67.0774 55.2078L63.211 57.4022L63.0638 57.192L66.6188 54.6108C69.8415 52.2734 71.1878 48.1283 69.9551 44.3447C68.7266 40.5612 65.201 38.001 61.2168 38.001C57.2327 38.001 53.7071 40.5612 52.4786 44.3447C51.2501 48.1283 52.5964 52.2734 55.8148 54.6108L59.1679 57.0449L59.0039 57.2761L55.3605 55.2078C51.8685 53.2235 47.4973 53.7154 44.5313 56.4185C41.5652 59.1259 40.6817 63.4307 42.3393 67.0882C43.997 70.7414 47.8255 72.9148 51.8138 72.4692C55.8022 72.0236 59.0544 69.0598 59.8621 65.1291L60.632 61.3918L61.0527 61.5011L59.1722 78.3674L63.2573 78.4304L61.3725 61.438L61.789 61.3245L62.5715 65.1291C63.3793 69.0598 66.6314 72.0236 70.6198 72.4692C74.6082 72.9148 78.4367 70.7456 80.0943 67.0882C81.7519 63.4349 80.8684 59.1259 77.9024 56.4185H77.9066Z" fill="#0A84FF"/>
<g filter="url(#filter4_f_3164_464)">
<path d="M76.3949 61.6041C73.4288 58.8967 69.0576 58.409 65.5657 60.3933L61.6993 62.5878L61.552 62.3776L65.1071 59.7964C68.3298 57.459 69.6761 53.3139 68.4434 49.5303C67.2149 45.7467 63.6893 43.1865 59.7051 43.1865C55.7209 43.1865 52.1953 45.7467 50.9669 49.5303C49.7384 53.3139 51.0847 57.459 54.3031 59.7964L57.6562 62.2304L57.4921 62.4617L53.8488 60.3933C50.3568 58.409 45.9856 58.9009 43.0196 61.6041C40.0535 64.3114 39.17 68.6163 40.8276 72.2737C42.4852 75.9269 46.3138 78.1004 50.3021 77.6548C54.2905 77.2091 57.5426 74.2453 58.3504 70.3147L59.1203 66.5773L59.541 66.6866L57.6604 83.5529L61.7456 83.616L59.8608 66.6236L60.2773 66.5101L61.0598 70.3147C61.8676 74.2453 65.1197 77.2091 69.1081 77.6548C73.0965 78.1004 76.925 75.9311 78.5826 72.2737C80.2402 68.6205 79.3567 64.3114 76.3907 61.6041H76.3949Z" fill="#0A84FF"/>
</g>
<defs>
<filter id="filter0_d_3164_464" x="256.729" y="34.9404" width="52.9395" height="55.0811" filterUnits="userSpaceOnUse" color-interpolation-filters="sRGB">
<feFlood flood-opacity="0" result="BackgroundImageFix"/>
<feColorMatrix in="SourceAlpha" type="matrix" values="0 0 0 0 0 0 0 0 0 0 0 0 0 0 0 0 0 0 127 0" result="hardAlpha"/>
<feOffset dy="4"/>
<feGaussianBlur stdDeviation="5"/>
<feComposite in2="hardAlpha" operator="out"/>
<feColorMatrix type="matrix" values="0 0 0 0 0 0 0 0 0 0 0 0 0 0 0 0 0 0 0.25 0"/>
<feBlend mode="normal" in2="BackgroundImageFix" result="effect1_dropShadow_3164_464"/>
<feBlend mode="normal" in="SourceGraphic" in2="effect1_dropShadow_3164_464" result="shape"/>
</filter>
<filter id="filter1_f_3164_464" x="226.729" y="0.94043" width="112.939" height="115.081" filterUnits="userSpaceOnUse" color-interpolation-filters="sRGB">
<feFlood flood-opacity="0" result="BackgroundImageFix"/>
<feBlend mode="normal" in="SourceGraphic" in2="BackgroundImageFix" result="shape"/>
<feGaussianBlur stdDeviation="20" result="effect1_foregroundBlur_3164_464"/>
</filter>
<filter id="filter2_f_3164_464" x="149.887" y="6.69043" width="118.359" height="121.174" filterUnits="userSpaceOnUse" color-interpolation-filters="sRGB">
<feFlood flood-opacity="0" result="BackgroundImageFix"/>
<feBlend mode="normal" in="SourceGraphic" in2="BackgroundImageFix" result="shape"/>
<feGaussianBlur stdDeviation="20" result="effect1_foregroundBlur_3164_464"/>
</filter>
<filter id="filter3_f_3164_464" x="78.8379" y="7.39062" width="110.521" height="116.494" filterUnits="userSpaceOnUse" color-interpolation-filters="sRGB">
<feFlood flood-opacity="0" result="BackgroundImageFix"/>
<feBlend mode="normal" in="SourceGraphic" in2="BackgroundImageFix" result="shape"/>
<feGaussianBlur stdDeviation="20" result="effect1_foregroundBlur_3164_464"/>
</filter>
<filter id="filter4_f_3164_464" x="0" y="3.18652" width="119.41" height="120.43" filterUnits="userSpaceOnUse" color-interpolation-filters="sRGB">
<feFlood flood-opacity="0" result="BackgroundImageFix"/>
<feBlend mode="normal" in="SourceGraphic" in2="BackgroundImageFix" result="shape"/>
<feGaussianBlur stdDeviation="20" result="effect1_foregroundBlur_3164_464"/>
</filter>
</defs>
</svg>
