<svg width="1243" height="312" viewBox="0 0 1243 312" fill="none" xmlns="http://www.w3.org/2000/svg">
<line x1="53.0742" y1="2.18556e-08" x2="53.0742" y2="312" stroke="#3A3A3A"/>
<line x1="104.787" y1="2.18556e-08" x2="104.787" y2="312" stroke="#3A3A3A"/>
<line x1="156.5" y1="2.18556e-08" x2="156.5" y2="312" stroke="#3A3A3A"/>
<line x1="208.213" y1="2.18556e-08" x2="208.213" y2="312" stroke="#3A3A3A"/>
<line x1="259.926" y1="2.18556e-08" x2="259.926" y2="312" stroke="#3A3A3A"/>
<line x1="312" y1="53.0752" x2="-4.37113e-08" y2="53.0752" stroke="#3A3A3A"/>
<line x1="312" y1="104.788" x2="-4.37113e-08" y2="104.788" stroke="#3A3A3A"/>
<line x1="312" y1="156.501" x2="-4.37113e-08" y2="156.501" stroke="#3A3A3A"/>
<line x1="312" y1="208.213" x2="-4.37113e-08" y2="208.213" stroke="#3A3A3A"/>
<line x1="312" y1="259.926" x2="-4.37113e-08" y2="259.926" stroke="#3A3A3A"/>
<line x1="984.074" y1="2.18556e-08" x2="984.074" y2="312" stroke="#3A3A3A"/>
<line x1="1035.79" y1="2.18556e-08" x2="1035.79" y2="312" stroke="#3A3A3A"/>
<line x1="1087.5" y1="2.18556e-08" x2="1087.5" y2="312" stroke="#3A3A3A"/>
<line x1="1139.21" y1="2.18556e-08" x2="1139.21" y2="312" stroke="#3A3A3A"/>
<line x1="1190.93" y1="2.18556e-08" x2="1190.93" y2="312" stroke="#3A3A3A"/>
<line x1="1243" y1="53.0752" x2="931" y2="53.0752" stroke="#3A3A3A"/>
<line x1="1243" y1="104.788" x2="931" y2="104.788" stroke="#3A3A3A"/>
<line x1="1243" y1="156.501" x2="931" y2="156.501" stroke="#3A3A3A"/>
<line x1="1243" y1="208.213" x2="931" y2="208.213" stroke="#3A3A3A"/>
<line x1="1243" y1="259.926" x2="931" y2="259.926" stroke="#3A3A3A"/>
</svg>
