<svg width="25" height="25" viewBox="0 0 25 25" fill="none" xmlns="http://www.w3.org/2000/svg">
<path d="M21.9751 7.16405C22.4986 6.07095 22.4244 4.7467 21.5259 3.8482L21.1518 3.47415C20.2533 2.57565 18.8934 2.4327 17.836 3.0249C17.0917 3.4417 15.5167 2.57505 15.4001 2.0137C15.1553 0.8348 14.0176 0 12.7552 0L12.1125 0.03265C10.6344 0.10775 9.47448 1.3281 9.47448 2.8081C9.52498 3.45 8.42498 3.925 7.78603 3.5074C6.68944 2.4108 4.91149 2.4108 3.81489 3.5074L3.50734 3.81495C2.567 4.75535 2.45775 6.1819 3.10559 7.28C3.54999 8.0333 3.11664 9.36665 2.38655 9.54615C1.05805 9.8728 0 10.85 0 12.2899V12.7548C0 14.03 0.928898 14.9814 2.0844 15.3913C3.28329 15.8166 3.18874 17.5753 3.06584 17.786C2.4388 18.8611 2.58594 20.2636 3.50739 21.185L3.81494 21.4926C4.73174 22.4094 6.10099 22.5163 7.19784 21.9435C7.98333 21.5333 9.45003 22.3 9.57168 22.9268C9.80743 24.1415 10.986 25 12.2826 25H12.6827C13.9538 25 15.0301 24.1658 15.3938 23.015C15.6317 22.2624 16.7834 21.5 17.929 21.982C19.0188 22.4405 20.3612 22.3164 21.2129 21.4648L21.4926 21.185C22.5892 20.0884 22.5892 18.3105 21.4926 17.2139C21 16.7667 21.6334 15.5334 22.1919 15.5255C23.7428 15.5255 25 14.2683 25 12.7174V12.2367C25 10.9453 24.1428 9.7935 22.9363 9.52835C22.125 9.35 21.7125 7.7125 21.9751 7.16405Z" fill="#18CF8D"/>
<path d="M10.3008 16.1016L7.02494 12.8419C6.63231 12.4512 6.63231 11.8178 7.02494 11.4272C7.41757 11.0365 8.05409 11.0365 8.44667 11.4272L11.0117 13.9796L16.5527 8.46587C16.9454 8.07518 17.5819 8.07518 17.9745 8.46587C18.3671 8.85656 18.3671 9.48994 17.9745 9.88058L11.7226 16.1016C11.3101 16.4519 10.5729 16.4019 10.3008 16.1016Z" fill="white"/>
</svg>
