<svg width="667" height="666" viewBox="0 0 667 666" fill="none" xmlns="http://www.w3.org/2000/svg">
<path d="M330.56 491.921C268.706 491.921 229.575 482.939 229.107 482.828L229.257 482.189C229.825 482.321 286.753 495.388 371.983 489.936C421.999 486.719 468.895 477.651 511.364 462.978C561.409 445.669 602.014 421.36 628.789 392.677C651.305 368.525 664.054 338.028 664.05 309.898C664.05 304.497 663.579 299.181 662.615 294.011C654.768 252.122 620.646 221.329 601.007 206.702C586.824 196.145 570.462 186.409 552.376 177.762C538.046 170.914 523.174 164.945 506.912 159.518C479.794 150.471 462.869 147.172 462.701 147.14L462.822 146.494C462.99 146.526 479.955 149.829 507.119 158.893C523.409 164.327 538.303 170.307 552.655 177.166C570.78 185.831 587.177 195.591 601.396 206.173C621.114 220.858 655.372 251.779 663.258 293.89C664.225 299.088 664.7 304.44 664.7 309.873C664.707 338.174 651.894 368.846 629.264 393.123C602.418 421.885 561.719 446.251 511.575 463.595C469.049 478.287 422.096 487.369 372.019 490.586C357.314 491.528 343.434 491.918 330.553 491.918L330.56 491.921Z" fill="black" stroke="#282828"/>
<path d="M479.028 197.565C465.74 197.565 449.693 192.388 436.016 183.148C417.93 170.931 407.335 154.133 406.942 137.068C406.596 120.355 420.511 104.689 437.965 102.14C454.437 99.7448 473.498 105.625 488.938 117.853C503.982 129.784 509.837 143.423 511.654 148.731C514.271 156.382 514.221 161.059 514.207 161.534C514.278 162.002 514.906 166.554 512.925 173.576C510.776 181.174 504.239 190.895 492.333 195.394C488.445 196.858 483.922 197.561 479.024 197.561L479.028 197.565ZM445.387 102.276C442.903 102.276 440.454 102.447 438.062 102.794C420.926 105.296 407.26 120.666 407.599 137.057C407.984 153.908 418.477 170.51 436.384 182.605C454.937 195.14 477.853 200.149 492.105 194.783C503.782 190.371 510.19 180.845 512.297 173.401C514.3 166.293 513.564 161.659 513.557 161.613L513.55 161.581V161.545C513.553 161.498 513.696 156.721 511.033 148.946C509.234 143.69 503.436 130.195 488.531 118.37C475.479 108.031 459.828 102.272 445.387 102.272V102.276Z" fill="black" stroke="#282828"/>
<path d="M483.84 253.974C479.655 253.974 475.389 253.731 471.08 253.238C452.066 251.068 432.574 244.22 414.713 233.438C375.55 209.764 349.103 169.285 348.907 132.712C348.828 115.115 355.233 98.2596 366.471 86.4602C377.306 75.1034 393.111 67.5167 410.972 65.0961C443.023 60.7797 479.984 72.3008 509.836 95.914C538.961 118.985 550.52 145.393 554.133 155.679C559.374 170.606 559.378 180.014 559.37 180.642C559.474 181.263 560.87 190.403 557.214 204.277C553.237 219.336 540.739 238.704 517.58 247.911C507.462 251.924 495.978 253.974 483.836 253.974H483.84ZM424.549 64.8605C419.979 64.8605 415.474 65.1532 411.057 65.7495C393.347 68.1522 377.681 75.6675 366.946 86.9171C355.822 98.5917 349.485 115.282 349.564 132.712C349.76 169.064 376.078 209.318 415.052 232.881C432.835 243.617 452.234 250.432 471.155 252.592C487.87 254.488 503.835 252.663 517.341 247.305C540.271 238.186 552.648 219.014 556.582 204.112C560.309 189.96 558.739 180.82 558.724 180.728L558.717 180.695V180.663C558.721 180.57 558.874 171.159 553.516 155.9C549.917 145.672 538.422 119.399 509.429 96.4353C483.829 76.1851 452.987 64.8641 424.552 64.8641L424.549 64.8605Z" fill="black" stroke="#282828"/>
<path d="M486.067 312.486C480.587 312.486 475.053 312.2 469.506 311.626C441.406 308.691 412.592 298.737 386.181 282.839C357.789 265.734 333.72 242.782 316.573 216.462C299.315 189.946 289.987 160.646 290.305 133.955C290.63 108.246 300.465 83.7222 317.294 66.6639C333.391 50.3731 356.607 39.5697 382.665 36.2494C429.05 30.3835 482.365 47.1242 525.287 81.0446C567.21 114.219 584.11 152.295 589.43 167.126C592.682 176.205 594.92 184.98 596.273 193.956C597.148 199.746 597.323 203.045 597.337 203.352C597.452 204.006 599.708 217.351 594.624 237.912C591.475 250.615 585.963 262.171 578.241 272.264C571.205 281.454 558.456 294.224 537.707 302.886C522.567 309.194 504.667 312.482 486.067 312.482V312.486ZM401.347 35.7531C395.053 35.7531 388.841 36.1316 382.743 36.9063C356.832 40.2087 333.752 50.9443 317.758 67.1315C301.05 84.065 291.283 108.428 290.962 133.966C290.647 160.528 299.937 189.696 317.123 216.105C334.216 242.339 358.214 265.224 386.52 282.279C412.849 298.127 441.567 308.048 469.573 310.972C493.842 313.496 517.951 310.412 537.45 302.286C558.067 293.678 570.726 280.993 577.717 271.868C585.385 261.846 590.858 250.372 593.985 237.758C599.137 216.926 596.713 203.588 596.688 203.456L596.68 203.409C596.68 203.377 596.531 200.078 595.624 194.059C594.278 185.126 592.05 176.394 588.812 167.354C583.511 152.577 566.667 114.633 524.88 81.5694C487.734 52.2153 442.791 35.7603 401.35 35.7603L401.347 35.7531Z" fill="black" stroke="#282828"/>
<path d="M483.802 371.83C477.304 371.83 470.71 371.519 464.049 370.891C427.556 367.446 390.139 354.743 355.845 334.164C318.952 312.004 287.825 282.143 265.83 247.808C254.728 230.461 246.285 212.431 240.737 194.22C235.214 176.076 232.665 158.082 233.158 140.738C234.118 107.66 247.359 76.2035 269.486 54.436C290.506 33.7895 320.505 20.18 353.967 16.1099C413.079 8.95527 480.821 30.3265 535.167 73.2509C588.293 115.265 609.97 163.648 616.828 182.502C621.033 194.077 623.957 205.287 625.771 216.776C626.949 224.242 627.202 228.472 627.224 228.822C627.363 229.565 630.412 246.684 624.171 273.314C620.312 289.762 613.418 304.785 603.683 317.966C594.772 330.016 578.579 346.817 552.032 358.424C539.765 363.779 526.356 367.588 512.18 369.741C502.998 371.134 493.505 371.83 483.798 371.83H483.802ZM376.915 15.4138C369.179 15.4138 361.546 15.86 354.046 16.7669C320.73 20.819 290.86 34.3643 269.947 54.9072C247.941 76.5569 234.768 107.85 233.814 140.76C233.322 158.032 235.86 175.955 241.365 194.031C246.895 212.185 255.313 230.161 266.384 247.455C288.322 281.704 319.377 311.494 356.18 333.604C390.388 354.132 427.709 366.799 464.106 370.238C480.66 371.794 496.8 371.409 512.08 369.091C526.199 366.946 539.551 363.154 551.764 357.82C578.182 346.271 594.29 329.559 603.151 317.574C612.833 304.467 619.687 289.523 623.529 273.164C629.841 246.22 626.603 229.097 626.57 228.926L626.563 228.879C626.563 228.836 626.335 224.602 625.117 216.88C623.311 205.434 620.394 194.259 616.207 182.727C609.37 163.927 587.75 115.676 534.757 73.7686C487.447 36.4029 429.959 15.4102 376.912 15.4102L376.915 15.4138Z" fill="black" stroke="#282828"/>
<path d="M475.902 429.825C468.98 429.825 461.972 429.529 454.903 428.933C433.64 427.137 411.97 422.664 390.49 415.637C367.906 408.247 345.807 398.129 324.805 385.562C280.433 358.989 243.176 323.027 217.058 281.559C203.906 260.659 193.996 238.938 187.595 216.999C181.243 195.196 178.487 173.585 179.401 152.775C180.294 132.614 184.853 112.771 192.585 95.3874C200.115 78.4718 211.16 62.7487 224.526 49.9174C249.938 25.5473 285.884 9.5385 325.751 4.83298C363.125 0.445216 402.246 5.17929 442.016 18.8924C476.727 30.8597 510.457 49.3355 539.563 72.3168C602.074 121.743 627.807 178.887 635.968 201.162C640.991 214.885 644.511 228.188 646.724 241.833C648.188 250.862 648.509 255.921 648.524 256.182C648.556 256.45 649.134 261.451 649.238 270.405C649.338 279.06 649.038 292.512 645.261 309.335C640.82 329.092 632.773 347.197 621.345 363.145C610.842 377.783 591.703 398.251 560.158 412.628C545.539 419.283 529.535 424.081 512.595 426.883C500.753 428.84 488.469 429.822 475.906 429.822L475.902 429.825ZM352.322 3.96543C343.365 3.96543 334.519 4.46525 325.822 5.48633C286.099 10.174 250.284 26.1221 224.976 50.3922C211.671 63.1664 200.679 78.8181 193.182 95.6552C185.481 112.963 180.944 132.724 180.055 152.803C179.144 173.543 181.893 195.082 188.223 216.813C194.602 238.695 204.488 260.363 217.611 281.209C243.676 322.591 280.854 358.479 325.14 384.998C346.1 397.54 368.156 407.64 390.693 415.016C412.124 422.024 433.744 426.487 454.957 428.279C474.817 429.954 494.174 429.268 512.484 426.241C529.367 423.449 545.314 418.668 559.884 412.035C591.296 397.715 610.353 377.34 620.806 362.766C632.184 346.89 640.195 328.864 644.614 309.196C648.374 292.441 648.677 279.042 648.577 270.42C648.47 261.301 647.874 256.307 647.867 256.257V256.235C647.863 256.185 647.563 251.137 646.071 241.944C643.865 228.341 640.359 215.075 635.347 201.39C627.203 179.169 601.528 122.157 539.149 72.8345C483.332 28.7533 415.255 3.96543 352.322 3.96543Z" fill="black" stroke="#282828"/>
<path d="M463.486 484.495C456.535 484.495 449.506 484.23 442.419 483.698C418.197 481.878 393.51 476.969 369.038 469.114C343.284 460.842 318.097 449.41 294.185 435.144C243.641 404.965 201.382 363.929 171.972 316.474C157.196 292.607 146.15 267.795 139.146 242.728C132.21 217.865 129.386 193.238 130.749 169.536C132.077 146.629 137.579 124.091 146.661 104.362C155.486 85.2148 168.274 67.4352 183.643 52.9402C212.771 25.5104 253.651 7.50593 298.755 2.24347C340.845 -2.62985 384.806 2.67903 429.414 18.0273C468.349 31.4227 506.137 52.0977 538.699 77.8173C566.317 99.6598 590.308 125.008 610 153.156C629.749 181.385 640.898 206.394 646.778 222.407C652.451 237.873 656.439 252.889 658.973 268.305C660.651 278.53 661.03 284.253 661.048 284.535C661.08 284.814 661.751 290.476 661.908 300.647C662.058 310.466 661.772 325.732 657.61 344.875C652.701 367.403 643.719 388.11 630.913 406.414C619.111 423.266 597.565 446.89 561.933 463.727C545.372 471.546 527.232 477.244 508.019 480.664C493.674 483.213 478.762 484.495 463.486 484.495ZM328.504 1.21525C318.479 1.21525 308.579 1.76863 298.833 2.89681C253.869 8.14143 213.121 26.0852 184.103 53.4186C168.792 67.8565 156.054 85.5682 147.268 104.64C138.221 124.298 132.738 146.751 131.417 169.578C130.053 193.21 132.87 217.765 139.789 242.557C146.775 267.562 157.792 292.318 172.54 316.131C201.893 363.497 244.076 404.458 294.531 434.583C318.404 448.825 343.544 460.235 369.248 468.493C393.671 476.333 418.308 481.228 442.477 483.049C465.078 484.741 487.091 483.723 507.908 480.021C527.065 476.608 545.15 470.928 561.658 463.138C597.159 446.365 618.625 422.83 630.381 406.043C643.133 387.81 652.083 367.185 656.974 344.743C661.126 325.664 661.408 310.451 661.258 300.665C661.101 290.326 660.409 284.671 660.401 284.614V284.592C660.398 284.535 660.041 278.819 658.331 268.419C655.803 253.043 651.826 238.069 646.168 222.639C636.993 197.647 608.115 133.555 538.296 78.3386C475.806 28.9771 399.347 1.21525 328.504 1.21525Z" fill="black" stroke="#282828"/>
<path d="M447.384 534.035C440.683 534.035 433.922 533.81 427.11 533.356C400.631 531.589 373.642 526.416 346.899 517.979C318.731 509.086 291.21 496.701 265.092 481.164C210.667 448.757 163.439 402.641 132.105 351.312C116.154 325.164 104.327 297.97 96.9437 270.479C89.6431 243.26 86.8513 216.298 88.6506 190.346C90.3928 165.316 96.6938 140.692 106.879 119.142C116.747 98.271 130.923 78.8885 147.874 63.0904C179.897 33.2757 224.558 13.686 273.631 7.93086C319.245 2.61841 366.805 8.29144 415.001 24.8C457.08 39.2093 497.861 61.4802 532.94 89.2028C562.714 112.762 588.575 140.142 609.802 170.578C631.087 201.093 643.121 228.183 649.469 245.534C655.602 262.318 659.922 278.627 662.678 295.399C664.506 306.542 664.92 312.772 664.938 313.068C664.974 313.357 665.705 319.53 665.887 330.63C666.062 341.341 665.773 358.003 661.293 378.949C656.006 403.633 646.299 426.372 632.44 446.536C619.638 465.144 596.243 491.285 557.502 510.143C539.455 518.918 519.688 525.377 498.739 529.34C482.228 532.46 465.024 534.028 447.384 534.028V534.035ZM306.204 6.73484C295.23 6.73484 284.384 7.34534 273.71 8.58777C224.776 14.3286 180.247 33.854 148.324 63.5723C131.434 79.3133 117.311 98.6281 107.475 119.421C97.3293 140.899 91.0461 165.437 89.311 190.389C87.5189 216.27 90.3035 243.157 97.5863 270.304C104.951 297.731 116.757 324.868 132.673 350.962C163.949 402.202 211.099 448.239 265.435 480.589C291.51 496.101 318.985 508.469 347.102 517.344C373.795 525.766 400.731 530.929 427.16 532.692C451.847 534.335 475.891 532.989 498.621 528.694C519.513 524.741 539.227 518.301 557.22 509.554C595.833 490.757 619.145 464.705 631.904 446.165C645.713 426.072 655.388 403.412 660.657 378.81C665.123 357.931 665.409 341.319 665.238 330.641C665.052 319.366 664.299 313.204 664.292 313.143V313.122C664.288 313.061 663.895 306.835 662.035 295.506C659.286 278.777 654.977 262.504 648.862 245.759C638.955 218.679 607.785 149.261 532.54 89.7133C465.313 36.5959 382.849 6.73484 306.204 6.73484Z" fill="black" stroke="#282828"/>
<path d="M428.529 576.941C422.26 576.941 415.941 576.752 409.583 576.377C381.601 574.714 353.098 569.426 324.863 560.654C295.107 551.407 266.054 538.43 238.511 522.082C181.098 487.983 131.439 439.25 98.6806 384.865C82.0228 357.185 69.742 328.381 62.1878 299.255C58.4607 284.871 55.8939 270.365 54.5622 256.149C53.2449 242.05 53.12 228.001 54.1874 214.395C56.2794 187.904 63.1838 161.846 74.1545 139.036C84.7789 116.968 99.9301 96.4646 117.966 79.7454C151.985 48.2455 199.195 27.4884 250.899 21.2906C298.809 15.5818 348.718 21.4084 399.234 38.5917C443.366 53.6044 486.067 76.8642 522.721 105.854C554.433 130.963 581.74 159.943 603.881 191.978C621.082 216.887 634.73 243.096 644.444 269.883C650.849 287.556 655.35 304.739 658.214 322.415C660.116 334.179 660.538 340.755 660.559 341.059C660.595 341.355 661.355 347.871 661.53 359.602C661.794 377.346 660.195 394.065 656.646 410.717C651.059 436.886 640.828 461.039 626.237 482.503C617.108 495.923 606.266 508.258 594.007 519.161C580.173 531.464 564.436 542.043 547.236 550.611C528.197 560.086 507.334 567.116 485.221 571.508C467.014 575.117 448.014 576.934 428.529 576.934V576.941ZM285.975 19.9053C274.161 19.9053 262.477 20.5801 250.981 21.9475C199.416 28.1275 152.338 48.8275 118.419 80.2345C100.441 96.8966 85.343 117.332 74.7543 139.325C63.8157 162.06 56.9327 188.04 54.8478 214.449C53.7804 228.016 53.9054 242.025 55.2227 256.088C56.5507 270.272 59.1104 284.742 62.8304 299.091C70.3703 328.156 82.6226 356.903 99.2482 384.526C131.95 438.818 181.53 487.469 238.85 521.514C266.35 537.833 295.357 550.79 325.063 560.026C353.248 568.776 381.698 574.057 409.626 575.717C435.691 577.263 461.088 575.628 485.096 570.868C507.148 566.491 527.958 559.479 546.947 550.029C564.097 541.489 579.784 530.939 593.575 518.679C605.795 507.808 616.602 495.516 625.698 482.142C640.242 460.746 650.438 436.672 656.011 410.588C659.552 393.983 661.145 377.31 660.88 359.62C660.702 347.713 659.92 341.201 659.913 341.137V341.116C659.906 341.051 659.506 334.479 657.571 322.529C654.719 304.896 650.224 287.748 643.834 270.115C634.141 243.382 620.518 217.223 603.35 192.36C581.247 160.375 553.983 131.445 522.321 106.379C452.309 50.9982 366.247 19.9089 285.975 19.9089V19.9053Z" fill="black" stroke="#282828"/>
<path d="M407.885 612.069C402.126 612.069 396.325 611.912 390.492 611.605C361.803 610.073 332.586 604.8 303.661 595.939C273.177 586.588 243.432 573.389 215.253 556.702C156.512 521.886 105.836 471.946 72.5597 416.08C55.6449 387.654 43.2391 358.053 35.6849 328.103C31.9578 313.315 29.4267 298.399 28.1629 283.772C26.9098 269.27 26.8813 254.817 28.0772 240.815C30.4441 213.178 37.5164 187.08 49.0975 163.242C60.3074 140.196 75.5585 119.639 94.4297 102.142C129.498 69.6636 177.982 48.1567 230.962 41.5804C279.953 35.5432 330.951 41.2984 382.545 58.6924C427.655 73.9014 471.224 97.5575 508.531 127.104C540.829 152.71 568.611 182.303 591.105 215.063C608.588 240.54 622.432 267.374 632.257 294.825C638.737 312.944 643.278 330.566 646.134 348.706C648.037 360.792 648.443 367.543 648.461 367.85C648.497 368.153 649.25 374.847 649.39 386.9C649.597 405.137 647.901 422.338 644.209 439.479C638.401 466.426 627.848 491.339 612.84 513.521C603.447 527.391 592.301 540.158 579.71 551.465C565.494 564.225 549.336 575.224 531.686 584.161C512.14 594.05 490.731 601.43 468.054 606.1C448.736 610.07 428.559 612.069 407.87 612.069H407.885ZM268.172 39.9881C255.641 39.9881 243.242 40.7272 231.051 42.2302C178.207 48.7887 129.848 70.2348 94.883 102.624C76.0726 120.064 60.8679 140.557 49.6937 163.528C38.1483 187.291 31.0975 213.314 28.7377 240.869C27.5453 254.832 27.5738 269.248 28.8234 283.711C30.0871 298.302 32.6111 313.183 36.3275 327.939C43.8639 357.828 56.2447 387.368 73.1273 415.74C106.346 471.514 156.941 521.375 215.593 556.135C243.724 572.793 273.423 585.974 303.858 595.307C332.732 604.154 361.892 609.416 390.531 610.944C417.252 612.369 443.296 610.519 467.936 605.453C490.559 600.794 511.912 593.433 531.404 583.572C549.004 574.66 565.112 563.696 579.285 550.972C591.837 539.698 602.947 526.973 612.308 513.146C627.27 491.036 637.791 466.202 643.581 439.336C647.262 422.242 648.95 405.09 648.747 386.904C648.608 374.665 647.833 367.978 647.822 367.91V367.889C647.819 367.821 647.43 361.074 645.498 348.803C642.646 330.705 638.115 313.119 631.65 295.039C621.843 267.642 608.024 240.858 590.577 215.431C568.118 182.725 540.383 153.178 508.135 127.615C437.216 71.4487 349.911 39.9846 268.172 39.9846V39.9881Z" fill="black" stroke="#282828"/>
<path d="M386.349 638.677C381.101 638.677 375.821 638.548 370.512 638.291C341.891 636.892 312.767 631.754 283.946 623.018C253.576 613.803 223.963 600.729 195.931 584.156C137.497 549.582 87.1773 499.825 54.2438 444.044C37.5004 415.661 25.2624 386.078 17.8653 356.114C10.561 326.481 8.14057 297.073 10.6789 268.712C13.1672 241.011 20.3429 214.823 32.0097 190.878C43.3017 167.722 58.6171 147.039 77.5311 129.406C112.689 96.664 161.195 74.843 214.117 67.9703C262.994 61.6654 313.87 67.167 365.336 84.3325C410.382 99.3595 453.794 122.848 490.879 152.259C522.431 177.315 549.749 206.576 572.083 239.225C594.449 271.925 606.987 301.075 613.566 319.769C619.939 337.888 624.376 355.532 627.136 373.704C628.971 385.8 629.342 392.562 629.357 392.876C629.389 393.169 630.106 399.881 630.178 411.962C630.281 430.238 628.496 447.478 624.719 464.673C618.771 491.699 608.093 516.708 592.989 539C579.005 559.615 553.533 588.69 511.592 610.14C492.025 620.137 470.615 627.63 447.96 632.411C428.189 636.581 407.53 638.677 386.349 638.677ZM252.976 66.171C239.881 66.171 226.937 66.9778 214.202 68.6237C161.416 75.482 113.039 97.2352 77.9809 129.888C59.1276 147.468 43.8586 168.086 32.6024 191.167C20.9712 215.041 13.8169 241.153 11.3357 268.772C8.8046 297.063 11.2179 326.395 18.5079 355.96C25.8871 385.86 38.1038 415.382 54.815 443.712C87.6949 499.396 137.929 549.075 196.27 583.596C224.259 600.14 253.822 613.193 284.143 622.393C312.91 631.111 341.98 636.242 370.551 637.638C397.216 638.937 423.216 636.963 447.828 631.772C470.426 627.002 491.779 619.53 511.296 609.558C553.115 588.173 578.509 559.186 592.446 538.636C607.504 516.412 618.147 491.481 624.08 464.537C627.846 447.393 629.628 430.199 629.524 411.969C629.453 399.709 628.714 393.008 628.707 392.944V392.922C628.703 392.854 628.353 386.096 626.49 373.804C623.737 355.674 619.307 338.073 612.952 319.99C602.678 290.8 570.176 216.073 490.476 152.78C420.425 97.2245 334.109 66.1745 252.983 66.1745L252.976 66.171Z" fill="black" stroke="#282828"/>
<path d="M364.698 656.411C359.917 656.411 355.119 656.3 350.289 656.082C322.479 654.808 294.204 649.899 266.251 641.491C236.802 632.626 208.099 620.002 180.949 603.972C124.36 570.533 75.6867 522.275 43.892 468.086C27.7198 440.496 15.9102 411.71 8.8023 382.527C1.78007 353.64 -0.501175 324.947 2.02283 297.245C4.50043 270.166 11.5334 244.532 22.9217 221.054C33.9567 198.333 48.9008 178.005 67.3435 160.636C101.659 128.343 148.965 106.669 200.552 99.5995C248.176 93.1125 297.774 98.2107 347.954 114.748C391.93 129.239 434.224 152.031 470.256 180.657C500.937 205.063 527.455 233.61 549.068 265.51C570.709 297.445 582.762 325.936 589.063 344.211C595.164 361.923 599.377 379.171 601.944 396.943C603.654 408.771 603.968 415.38 603.978 415.69C604.007 415.979 604.66 422.541 604.646 434.355C604.617 452.224 602.754 469.086 598.945 485.905C592.947 512.328 582.362 536.784 567.475 558.598C553.709 578.752 528.69 607.192 487.696 628.231C468.589 638.028 447.704 645.393 425.627 650.12C406.067 654.304 385.625 656.411 364.687 656.411H364.698ZM240.44 97.6002C226.998 97.6002 213.707 98.4749 200.645 100.253C149.19 107.3 102.012 128.914 67.7969 161.114C49.4149 178.429 34.5172 198.694 23.5179 221.343C12.1617 244.746 5.15374 270.305 2.68328 297.306C0.162849 324.936 2.44052 353.555 9.44847 382.373C16.5421 411.495 28.3232 440.221 44.4632 467.758C76.2043 521.85 124.796 570.026 181.288 603.411C208.392 619.413 237.044 632.016 266.444 640.866C294.347 649.26 322.568 654.158 350.325 655.429C376.24 656.607 401.533 654.608 425.502 649.481C447.522 644.765 468.353 637.421 487.407 627.649C528.276 606.674 553.216 578.323 566.943 558.23C581.784 536.484 592.337 512.103 598.313 485.762C602.111 468.993 603.971 452.181 603.996 434.359C604.011 422.374 603.339 415.819 603.332 415.755V415.733C603.329 415.669 603.036 409.06 601.301 397.04C598.738 379.31 594.536 362.098 588.449 344.426C578.606 315.875 547.34 242.811 469.853 181.171C402.29 127.501 319.023 97.6002 240.44 97.6002Z" fill="black" stroke="#282828"/>
<path d="M343.601 665.258C339.228 665.258 334.833 665.161 330.421 664.969C304.11 663.805 277.384 659.21 250.981 651.305C223.177 642.976 196.099 631.095 170.502 615.993C117.162 584.496 71.2907 538.944 41.3453 487.73C26.0978 461.625 14.9665 434.355 8.26552 406.686C1.63242 379.267 -0.523875 351.998 1.86447 325.625C4.20997 299.816 10.8645 275.346 21.6424 252.9C32.099 231.147 46.2684 211.64 63.7579 194.924C96.363 163.792 141.335 142.724 190.39 135.605C235.704 129.061 282.925 133.627 330.735 149.175C372.693 162.817 412.956 184.42 447.171 211.65C476.324 234.882 501.464 262.108 521.895 292.569C542.337 323.051 553.633 350.252 559.509 367.707C565.193 384.612 569.077 401.078 571.383 418.047C572.914 429.332 573.161 435.637 573.172 435.937C573.197 436.226 573.768 442.488 573.654 453.745C573.482 470.779 571.565 486.859 567.792 502.903C561.862 528.073 551.58 551.369 537.229 572.147C523.977 591.308 499.975 618.36 460.869 638.385C442.669 647.696 422.809 654.704 401.839 659.213C383.129 663.23 363.593 665.254 343.601 665.254V665.258ZM230.507 133.427C216.99 133.427 203.614 134.359 190.483 136.255C141.563 143.356 96.7164 164.359 64.2113 195.399C46.7789 212.061 32.6559 231.504 22.235 253.186C11.4892 275.564 4.85615 299.955 2.51778 325.686C0.140149 351.984 2.28573 379.185 8.90098 406.529C15.5876 434.138 26.694 461.346 41.9094 487.398C71.8012 538.519 117.587 583.989 170.834 615.429C196.384 630.502 223.413 642.362 251.166 650.677C277.52 658.567 304.192 663.155 330.449 664.312C354.986 665.397 378.955 663.462 401.703 658.574C422.62 654.076 442.427 647.085 460.573 637.803C499.558 617.838 523.484 590.876 536.693 571.776C550.998 551.065 561.248 527.845 567.16 502.757C570.922 486.762 572.832 470.729 573.004 453.745C573.118 442.317 572.529 436.062 572.522 435.998V435.976C572.518 435.912 572.293 429.611 570.737 418.14C568.438 401.213 564.561 384.787 558.888 367.925C549.702 340.641 520.392 270.844 446.768 212.172C383.154 161.546 304.777 133.434 230.514 133.434L230.507 133.427Z" fill="black" stroke="#282828"/>
<path d="M323.539 665.5C319.516 665.5 315.478 665.41 311.419 665.236C262.135 663.061 209.998 647.12 164.602 620.358C115.721 591.507 73.6731 549.718 46.2054 502.692C32.1966 478.686 21.9542 453.584 15.7638 428.078C9.63052 402.773 7.60631 377.567 9.74476 353.154C13.8217 306.945 34.5243 262.557 66.5474 231.378C96.6534 202.103 138.255 182.124 183.683 175.116C225.702 168.668 269.539 172.616 313.971 186.854C353.02 199.368 390.413 219.34 422.107 244.613C449.129 266.188 472.37 291.515 491.187 319.891C510.008 348.27 520.308 373.601 525.634 389.856C530.782 405.582 534.256 420.902 536.252 436.69C537.576 447.189 537.747 453.048 537.755 453.323C537.78 453.616 538.247 459.435 538.04 469.871C537.726 485.683 535.798 500.61 532.142 515.502C526.405 538.826 516.652 560.404 503.147 579.637C490.709 597.338 468.253 622.311 431.914 640.783C415.035 649.355 396.649 655.803 377.261 659.952C359.985 663.643 341.957 665.507 323.532 665.507L323.539 665.5ZM223.079 172.816C209.805 172.816 196.671 173.788 183.787 175.762C138.494 182.749 97.0211 202.667 67.0115 231.846C35.099 262.917 14.4679 307.152 10.4052 353.208C8.27034 377.549 10.291 402.683 16.4064 427.921C22.5826 453.362 32.8 478.407 46.773 502.356C74.1872 549.29 116.153 590.993 164.937 619.787C210.241 646.496 262.27 662.404 311.447 664.571C334.042 665.56 356.137 663.786 377.129 659.298C396.46 655.16 414.796 648.73 431.621 640.187C467.839 621.779 490.216 596.888 502.615 579.251C516.074 560.083 525.795 538.579 531.511 515.337C535.156 500.492 537.08 485.612 537.39 469.849C537.601 459.235 537.112 453.419 537.105 453.362V453.341C537.105 453.284 536.951 447.432 535.605 436.764C533.613 421.02 530.147 405.74 525.017 390.056C516.684 364.629 489.934 299.605 421.7 245.12C363.316 198.565 291.444 172.813 223.082 172.813L223.079 172.816Z" fill="black" stroke="#282828"/>
<path d="M304.865 657.645C301.163 657.645 297.446 657.563 293.716 657.396C249.815 655.407 203.437 641.219 163.117 617.445C119.72 591.829 82.3489 554.692 57.8907 512.878C45.392 491.492 36.2314 469.103 30.655 446.336C25.1215 423.705 23.2329 401.123 25.0501 379.217C28.5201 337.617 46.8665 297.499 75.3767 269.144C102.305 242.403 139.616 223.988 180.439 217.287C218.274 211.111 257.805 214.399 297.928 227.059C333.25 238.205 366.997 256.145 395.526 278.941C457.123 328.224 480.853 387.221 488.2 410.299C492.716 424.512 495.718 438.35 497.375 452.602C498.474 462.056 498.571 467.336 498.578 467.611C498.596 467.875 498.963 473.127 498.678 482.535C498.242 496.78 496.354 510.218 492.905 523.617C487.507 544.567 478.507 563.931 466.158 581.175C454.813 596.999 434.41 619.316 401.645 635.767C386.461 643.383 369.95 649.106 352.567 652.776C337.206 656.014 321.205 657.645 304.865 657.645ZM217.464 214.977C205.272 214.977 192.937 215.912 180.542 217.937C139.855 224.613 102.669 242.964 75.8372 269.612C47.4341 297.856 29.1627 337.827 25.7034 379.27C23.8934 401.106 25.7748 423.616 31.294 446.179C36.8525 468.886 45.9954 491.214 58.4583 512.546C82.863 554.263 120.148 591.318 163.453 616.877C203.68 640.598 249.954 654.754 293.748 656.735C313.904 657.638 333.643 656.092 352.432 652.129C369.757 648.47 386.215 642.765 401.348 635.175C433.996 618.787 454.32 596.552 465.623 580.79C477.925 563.614 486.89 544.32 492.27 523.449C495.704 510.096 497.589 496.705 498.021 482.51C498.314 472.945 497.928 467.7 497.924 467.647V467.625C497.924 467.575 497.842 462.299 496.725 452.677C495.072 438.464 492.08 424.665 487.575 410.495C480.249 387.475 456.576 328.62 395.119 279.451C353.749 246.398 288.129 214.973 217.467 214.973L217.464 214.977Z" fill="black" stroke="#282828"/>
<path d="M287.301 642.351C284.092 642.351 280.879 642.276 277.666 642.126C239.47 640.305 200.789 628.434 165.806 607.795C128.707 585.884 96.7051 554.113 75.6991 518.336C54.3432 481.917 44.1687 441.07 47.0497 403.319C49.8272 367.235 65.421 332.286 89.8328 307.431C113.009 283.864 145.25 267.487 180.611 261.318C213.016 255.691 248.37 258.376 282.853 269.09C313.691 278.669 343.101 294.228 367.895 314.078C421.474 357.039 441.723 408.585 447.942 428.753C457.213 458.875 456.496 477.772 456.456 478.664C456.57 479.553 458.798 498.229 450.951 527.28C446.05 545.406 438.035 562.136 427.132 577.009C417.154 590.615 399.275 609.787 370.79 623.853C346.367 635.896 317.043 642.358 287.305 642.358L287.301 642.351ZM214.598 259.076C203.424 259.076 192.096 259.986 180.722 261.961C145.497 268.109 113.381 284.417 90.3005 307.888C65.9958 332.636 50.4698 367.435 47.703 403.365C44.8327 440.985 54.9751 481.695 76.2632 518.001C97.2121 553.685 129.132 585.37 166.138 607.227C201.032 627.813 239.61 639.652 277.695 641.465C310.578 643.022 343.533 636.549 370.497 623.254C398.865 609.248 416.665 590.161 426.6 576.613C437.453 561.803 445.432 545.145 450.312 527.098C458.277 497.615 455.821 478.9 455.796 478.714V478.682V478.65C455.807 478.461 456.728 459.525 447.31 428.935C441.109 408.824 420.917 357.424 367.481 314.582C331.823 286.035 275.453 259.076 214.598 259.076Z" fill="black" stroke="#282828"/>
<path d="M272.389 620.426C269.447 620.426 266.495 620.351 263.525 620.201C232.348 618.609 200.814 608.876 172.329 592.057C143.386 574.941 117.707 549.208 100.018 519.593C81.5073 488.603 72.8321 455.904 74.9384 425.025C76.9983 395.225 89.5755 366.231 109.443 345.478C128.417 325.685 154.939 311.807 184.12 306.399C245.189 295.135 304.502 321.247 339.638 349.437C384.099 385.157 400.557 428.11 405.569 444.915C413.005 469.889 412.238 485.53 412.191 486.34C412.284 487.143 413.926 502.624 407.136 526.53C402.891 541.449 396.09 555.205 386.919 567.412C378.551 578.537 363.628 594.192 340.034 605.599C319.846 615.353 296.622 620.419 272.393 620.419L272.389 620.426ZM213.802 304.374C204.055 304.374 194.174 305.213 184.238 307.045C155.189 312.429 128.792 326.238 109.914 345.931C90.1503 366.578 77.6409 395.421 75.5917 425.068C71.3934 486.765 111.306 555.198 172.661 591.489C201.057 608.255 232.487 617.955 263.557 619.54C290.857 620.926 317.2 615.895 339.741 605.01C363.214 593.656 378.065 578.083 386.387 567.019C395.512 554.877 402.277 541.196 406.501 526.351C413.398 502.056 411.552 486.547 411.534 486.394V486.361V486.329C411.545 486.172 412.502 470.499 404.941 445.104C399.946 428.356 383.542 385.553 339.227 349.951C309.921 326.438 263.746 304.374 213.802 304.374Z" fill="black" stroke="#282828"/>
<path d="M259.152 592.147C256.214 592.147 253.258 592.057 250.292 591.872C226.497 590.401 202.992 583.168 182.318 570.954C135.719 543.36 105.117 491.167 107.898 444.03C109.272 421.127 118.679 398.742 133.702 382.616C148.143 367.135 168.445 356.185 190.869 351.783C238.118 342.547 284.01 362.63 311.21 384.497C345.597 412.184 358.056 445.526 361.816 458.579C367.353 477.836 366.631 489.889 366.582 490.6C366.653 491.303 367.745 503.242 362.287 521.518C359.388 531.207 347.05 564.174 309.979 581.69C295.499 588.516 277.713 592.143 259.145 592.143L259.152 592.147ZM214.945 350.138C207.055 350.138 199.051 350.855 190.997 352.43C168.709 356.807 148.532 367.685 134.184 383.065C119.261 399.081 109.922 421.316 108.555 444.069C105.788 490.971 136.254 542.914 182.654 570.39C228.564 597.516 279.544 595.313 309.707 581.101C346.529 563.703 358.785 530.957 361.666 521.335C367.224 502.72 365.946 490.764 365.932 490.646V490.614V490.582C365.942 490.464 366.835 478.393 361.191 458.768C357.449 445.776 345.044 412.587 310.803 385.018C288.359 366.971 253.123 350.145 214.948 350.145L214.945 350.138Z" fill="black" stroke="#282828"/>
<path d="M247.365 559.512C230.95 559.512 212.6 555.414 195.375 545.217C164.219 526.741 143.542 491.725 145.091 460.061C145.827 445.419 152.096 430.857 162.741 419.046C173.08 407.583 186.568 399.646 200.73 396.708C233.024 390.035 264.437 403.691 283.062 418.697C306.585 437.676 314.914 460.557 317.406 469.511C321.036 482.599 320.469 490.8 320.422 491.379C320.472 491.957 321.086 500.079 317.223 512.389C315.171 518.926 306.499 541.154 281.205 552.786C272.155 556.938 260.367 559.509 247.365 559.509V559.512ZM217.93 395.626C212.311 395.626 206.603 396.165 200.859 397.35C171.413 403.466 147.205 431.024 145.745 460.093C144.209 491.521 164.751 526.295 195.707 544.649C226.37 562.797 260.606 561.512 280.927 552.186C305.974 540.665 314.56 518.658 316.592 512.189C320.536 499.619 319.769 491.489 319.758 491.411V491.379V491.346C319.765 491.264 320.479 483.071 316.766 469.686C314.292 460.793 306.017 438.065 282.644 419.207C267.45 406.969 243.695 395.63 217.927 395.63L217.93 395.626Z" fill="black" stroke="#282828"/>
<path d="M241.371 522.02C230.843 522.02 218.523 518.114 207.952 510.963C193.265 501.027 185.15 487.164 185.679 472.93C186.268 457.989 198.502 443.711 213.532 440.423C230.033 436.828 246.094 443.776 255.626 451.469C267.653 461.191 271.816 472.923 273.048 477.518C274.833 484.183 274.508 488.246 274.465 488.674C274.497 489.103 274.743 493.13 272.698 499.342C271.609 502.634 267.061 513.83 254.162 519.592C250.474 521.235 246.101 522.024 241.364 522.024L241.371 522.02ZM222.689 440.109C219.726 440.109 216.706 440.405 213.671 441.066C198.92 444.293 186.914 458.303 186.335 472.955C185.811 486.957 193.822 500.613 208.32 510.42C223.464 520.667 242.213 524.191 253.902 518.989C266.554 513.337 271.013 502.366 272.08 499.135C274.151 492.837 273.819 488.742 273.815 488.699V488.667V488.635C273.819 488.596 274.233 484.462 272.419 477.685C271.202 473.155 267.096 461.58 255.219 451.98C247.561 445.8 235.637 440.105 222.696 440.105L222.689 440.109Z" fill="black" stroke="#282828"/>
<path d="M229.213 482.834L229.148 482.18C229.698 482.127 285.066 476.557 364.549 449.417C411.548 433.354 455.684 413.522 495.726 390.469C543.278 363.079 580.66 333.825 606.835 303.528C633.446 272.689 646.355 240.707 642.257 215.776C640.272 203.77 634.1 192.07 624.875 182.834C616.085 174.041 604.208 166.647 589.581 160.856C576.719 155.772 562.356 152.07 545.677 149.542C532.593 147.56 518.934 146.436 503.915 146.1C490.895 145.815 480.557 146.193 473.909 146.504C466.762 146.836 462.824 147.146 462.785 147.15L462.735 146.496C462.774 146.493 466.719 146.182 473.881 145.85C480.535 145.54 490.885 145.161 503.933 145.447C518.977 145.782 532.668 146.911 545.777 148.896C562.506 151.43 576.915 155.143 589.824 160.249C604.536 166.072 616.485 173.516 625.339 182.373C634.66 191.706 640.897 203.53 642.907 215.673C647.037 240.796 634.071 272.978 607.335 303.963C581.113 334.321 543.675 363.618 496.058 391.048C455.977 414.122 411.805 433.972 364.763 450.045C285.201 477.211 229.762 482.787 229.213 482.841V482.834Z" fill="black" stroke="#282828"/>
<path d="M229.329 482.802L229.033 482.213C229.504 481.977 276.714 458.214 344.209 411.316C384.39 383.386 422.635 353.625 457.879 322.854C477.81 305.449 496.314 288.091 512.882 271.254C530.365 253.489 545.591 236.405 558.139 220.482C571.245 203.849 580.937 189.232 587.778 175.798C594.525 162.534 597.959 151.202 597.991 142.12C598.013 133.873 594.518 126.568 588.638 122.58C582.826 118.646 574.358 116.764 563.459 116.968C558.432 117.068 553.081 117.586 547.094 118.56C541.621 119.449 535.93 120.667 529.7 122.28C519.405 124.947 508.516 128.464 496.424 133.03C485.925 136.997 477.478 140.628 472.034 143.016C466.161 145.594 462.937 147.097 462.905 147.115L462.627 146.518C462.659 146.504 465.886 144.997 471.77 142.416C477.218 140.024 485.679 136.39 496.192 132.416C508.309 127.843 519.215 124.319 529.536 121.645C535.784 120.028 541.492 118.807 546.986 117.914C553.006 116.936 558.389 116.414 563.444 116.315C574.469 116.118 583.079 118.028 589.006 122.038C595.068 126.147 598.67 133.659 598.648 142.123C598.616 151.31 595.157 162.738 588.363 176.094C581.505 189.568 571.787 204.216 558.657 220.885C546.094 236.826 530.85 253.928 513.353 271.714C496.778 288.559 478.26 305.931 458.314 323.347C423.053 354.132 384.793 383.911 344.588 411.852C277.05 458.778 229.801 482.563 229.329 482.799V482.802Z" fill="black" stroke="#282828"/>
<path d="M229.433 482.72L228.934 482.295C229.262 481.906 262.467 442.712 313.2 379.327C343.506 341.462 373.366 303.353 401.951 266.059C418.07 245.027 433.446 224.688 447.651 205.598C462.606 185.505 476.161 166.933 487.949 150.392C500.262 133.116 510.13 118.803 518.12 106.636C522.122 100.538 525.427 95.3217 528.219 90.6947C530.993 86.0963 533.085 82.3726 534.613 79.3093C536.834 74.8573 537.219 71.8084 536.78 71.1479C536.719 71.0551 536.655 71.0479 536.58 71.0443C535.559 71.1122 534.206 71.9655 532.485 73.2257C530.586 74.6181 528.366 76.4996 525.502 79.1415C518.812 85.318 511.647 92.8261 506.156 98.6777C499.813 105.44 493.158 112.744 485.218 121.663C478.603 129.096 473.155 135.336 469.146 139.946C465.162 144.53 463.006 147.036 463.006 147.036L462.506 146.608C462.506 146.608 464.662 144.101 468.65 139.514C472.655 134.904 478.107 128.66 484.726 121.223C492.669 112.298 499.327 104.99 505.675 98.2242C511.176 92.362 518.348 84.8431 525.056 78.6524C527.941 75.9926 530.176 74.1004 532.096 72.6902C533.96 71.3228 535.352 70.4624 536.537 70.3839C536.844 70.3696 537.144 70.5017 537.326 70.7801C538.076 71.9119 537.184 75.6213 535.199 79.5985C533.664 82.676 531.564 86.414 528.78 91.0303C525.981 95.6644 522.675 100.888 518.666 106.993C510.673 119.167 500.798 133.487 488.481 150.77C476.693 167.311 463.131 185.89 448.176 205.987C433.971 225.077 418.591 245.42 402.469 266.455C373.88 303.753 344.017 341.865 313.711 379.734C262.97 443.13 229.762 482.331 229.43 482.72H229.433Z" fill="black" stroke="#282828"/>
<path d="M229.496 482.602L228.867 482.409C228.903 482.291 232.623 470.224 239.838 449.217C246.849 428.817 258.573 396.171 274.613 356.503C292.86 311.375 312.552 267.109 333.144 224.927C344.782 201.089 356.463 178.461 367.859 157.675C379.883 135.74 391.546 115.95 402.513 98.8525C413.976 80.9872 424.155 66.7957 433.629 55.4568C443.29 43.9036 451.019 36.6454 457.952 32.6183C463.95 29.1409 470.19 28.9267 473.482 32.0792C476.866 35.3316 478.762 41.4509 479.279 50.7941C479.511 54.9962 479.451 59.6589 479.09 65.0463C478.765 69.9589 478.208 75.1893 477.394 81.0301C476.67 86.2247 475.781 91.605 474.677 97.4815C473.735 102.505 472.682 107.628 471.464 113.148C469.158 123.573 466.991 132.091 465.56 137.593C464.01 143.566 463.093 146.872 463.086 146.904L462.45 146.729C462.461 146.697 463.375 143.394 464.924 137.428C466.356 131.93 468.519 123.419 470.825 113.005C472.043 107.492 473.092 102.373 474.035 97.3602C475.138 91.4943 476.023 86.1212 476.748 80.9373C477.562 75.1071 478.115 69.8947 478.44 64.9999C478.797 59.6411 478.858 55.0034 478.626 50.8298C478.119 41.6616 476.288 35.6851 473.032 32.554C469.954 29.6014 464.028 29.8585 458.288 33.1859C451.426 37.1738 443.75 44.3856 434.14 55.8781C424.683 67.192 414.523 81.3657 403.074 99.2059C392.114 116.293 380.465 136.068 368.444 157.989C357.052 178.764 345.378 201.385 333.744 225.212C313.159 267.38 293.474 311.636 275.231 356.749C259.198 396.403 247.478 429.038 240.47 449.431C233.255 470.428 229.542 482.484 229.506 482.602H229.496Z" fill="black" stroke="#282828"/>
<path d="M228.855 482.538C228.805 482.003 223.839 427.886 232.189 345.104C237.151 295.992 245.666 248.251 257.486 203.206C264.191 177.683 271.845 153.627 280.234 131.706C289.106 108.535 298.741 87.8854 308.884 70.32C319.347 52.2048 330.254 37.5313 341.3 26.7065C352.245 15.9888 363.691 8.92338 374.401 6.2743C384.511 3.77873 395.55 5.27464 404.692 10.3693C413.503 15.289 421.711 23.5505 429.086 34.9287C435.559 44.9216 441.171 56.7961 446.233 71.234C450.207 82.5694 453.584 94.7473 456.551 108.453C459.124 120.331 460.674 130.017 461.616 136.272C462.63 143.002 463.084 146.744 463.087 146.779L462.434 146.858C462.43 146.822 461.977 143.088 460.963 136.369C460.021 130.124 458.475 120.453 455.904 108.592C452.941 94.9115 449.575 82.7657 445.608 71.4518C440.564 57.0639 434.977 45.2323 428.529 35.2857C421.214 24.0003 413.082 15.8103 404.368 10.9441C395.375 5.92799 384.507 4.46064 374.554 6.91336C363.958 9.53388 352.62 16.5422 341.756 27.1778C330.754 37.9598 319.883 52.5869 309.451 70.6485C299.327 88.1817 289.706 108.803 280.848 131.938C272.466 153.838 264.819 177.872 258.122 203.37C246.308 248.38 237.801 296.085 232.842 345.164C224.499 427.879 229.458 481.935 229.508 482.47L228.855 482.531V482.538Z" fill="black" stroke="#282828"/>
<path d="M228.885 482.65C228.643 482.136 204.488 430.161 190.068 346.411C181.59 297.085 178.776 248.963 181.711 203.375C183.385 177.437 186.945 152.967 192.289 130.636C197.951 106.997 205.573 85.9261 214.941 68.0073C233.608 32.3411 262.119 8.08158 291.207 3.12258C318.621 -1.52224 350.934 9.46681 379.883 33.2586C392.357 43.5193 404.134 55.6616 415.887 70.3743C425.079 81.8918 433.655 94.2304 442.098 108.097C456.267 131.378 463.004 146.537 463.068 146.691L462.468 146.955C462.4 146.805 455.682 131.678 441.537 108.44C433.108 94.5981 424.551 82.2774 415.376 70.7849C403.652 56.1078 391.907 44.0013 379.469 33.7691C350.662 10.0916 318.543 -0.836765 291.314 3.76879C262.429 8.69565 234.094 32.823 215.519 68.3108C206.176 86.1796 198.576 107.201 192.924 130.789C187.587 153.081 184.035 177.516 182.361 203.414C179.433 248.948 182.243 297.021 190.711 346.297C205.116 429.95 229.235 481.854 229.478 482.368L228.882 482.646L228.885 482.65Z" fill="black" stroke="#282828"/>
<path d="M228.944 482.732C228.54 482.296 188.213 438.45 152.52 360.595C131.671 315.072 118.387 269.909 113.043 226.367C108.641 190.393 107.895 138.151 129.322 93.5625C146.419 58.0605 179.72 31.6232 216.227 24.5721C234.77 21.0055 254.959 21.2911 276.236 25.4218C295.767 29.224 316.077 36.2466 336.601 46.2967C368.735 62.0484 399.17 83.5838 429.64 112.135C451.51 132.635 462.905 146.476 463.019 146.612L462.512 147.03C462.402 146.894 451.028 133.081 429.193 112.617C398.77 84.1086 368.389 62.6089 336.312 46.8894C315.842 36.8643 295.589 29.8595 276.111 26.0716C254.916 21.9516 234.806 21.6659 216.352 25.2183C180.045 32.2301 146.923 58.5282 129.915 93.8517C108.555 138.297 109.302 190.404 113.693 226.292C119.03 269.769 132.293 314.865 153.117 360.327C188.76 438.079 229.022 481.857 229.426 482.292L228.944 482.739V482.732Z" fill="black" stroke="#282828"/>
<path d="M229.015 482.792C228.497 482.489 176.792 451.657 123.61 386.586C95.8885 352.63 72.8833 310.73 60.4881 271.633C45.3798 223.989 45.619 180.708 61.1772 146.469C69.5489 128.097 82.4938 111.631 98.616 98.8502C114.731 86.0831 135.116 76.1294 157.564 70.0601C179.427 64.1586 203.692 61.5987 229.693 62.4449C253.441 63.2268 278.427 66.8576 303.96 73.234C403.057 98.0254 462.38 146.084 462.969 146.566L462.551 147.073C461.966 146.591 402.743 98.6252 303.799 73.8695C278.313 67.5074 253.373 63.8837 229.671 63.1018C203.739 62.2485 179.534 64.8084 157.736 70.6956C135.373 76.7435 115.07 86.6579 99.023 99.3678C82.9828 112.085 70.1022 128.465 61.7733 146.741C46.283 180.829 46.0545 223.946 61.1129 271.433C73.4866 310.456 96.449 352.273 124.117 386.169C177.217 451.143 228.833 481.921 229.347 482.225L229.011 482.792H229.015Z" fill="black" stroke="#282828"/>
<path d="M229.105 482.828C228.538 482.685 171.535 468.212 106.8 421.989C69.686 395.462 42.5038 365.983 26.0068 334.365C6.97499 297.828 4.49739 256.299 19.3772 223.279C27.524 205.235 40.9973 188.009 58.3405 173.46C75.8978 158.744 97.5929 146.291 122.819 136.452C146.952 127.044 173.941 120.179 203.03 116.048C229.455 112.299 257.358 110.853 285.961 111.739C393.38 115.127 462.224 146.209 462.906 146.52L462.631 147.119C461.949 146.805 393.216 115.78 285.94 112.396C257.373 111.503 229.512 112.953 203.123 116.694C174.081 120.821 147.145 127.672 123.058 137.062C97.8999 146.877 76.2655 159.29 58.7617 173.964C41.4935 188.448 28.081 205.596 19.977 223.55C5.17926 256.389 7.65329 297.703 26.5923 334.062C43.0393 365.583 70.1572 394.987 107.186 421.453C171.821 467.605 228.702 482.046 229.27 482.189L229.109 482.828H229.105Z" fill="black" stroke="#282828"/>
<path d="M229.161 482.836C228.515 482.836 214.82 482.807 192.219 480.704C171.298 478.755 139.436 474.814 104.4 463.168C65.797 450.318 37.301 432.389 19.708 409.879C10.2724 397.779 4.37473 382.76 2.66112 366.44C0.879679 349.514 3.79639 332.416 11.0971 316.997C19.4831 299.31 32.9599 281.762 51.1527 264.836C69.2849 247.978 91.7225 232.08 117.848 217.588C142.749 203.782 170.559 191.497 200.508 181.079C227.58 171.665 256.09 163.889 285.246 157.969C329.154 149.058 373.076 144.542 415.788 144.542H416.063C445.801 144.56 462.633 146.481 462.798 146.498L462.719 147.152C462.555 147.134 445.754 145.217 416.059 145.199H415.784C373.115 145.199 329.243 149.712 285.375 158.612C256.247 164.528 227.765 172.297 200.719 181.701C170.806 192.108 143.027 204.375 118.162 218.163C92.083 232.629 69.6883 248.495 51.5954 265.318C33.4633 282.187 20.0364 299.671 11.6861 317.279C-2.62965 347.525 0.801138 384.58 20.2256 409.479C37.7402 431.886 66.129 449.74 104.607 462.546C139.579 474.171 171.391 478.105 192.279 480.051C214.849 482.154 228.519 482.182 229.158 482.182H229.179V482.839H229.158L229.161 482.836Z" fill="black" stroke="#282828"/>
<path d="M105.189 505.834C94.0931 505.834 84.1863 504.973 75.1434 503.234C61.2703 500.56 50.239 495.844 42.3599 489.211C33.9632 482.135 28.776 471.656 28.1263 460.46C27.7728 454.319 28.5725 447.586 30.5003 440.449C32.4817 433.127 35.6804 425.258 40.0073 417.068C44.4091 408.739 50.0533 399.931 56.7864 390.891C63.5694 381.784 71.5591 372.305 80.527 362.719C98.4307 343.59 120.236 323.964 145.344 304.385C191.005 268.794 245.38 235.041 302.593 206.776C352.898 181.938 394.885 166.672 421.25 158.239C431.878 154.841 441.988 151.881 452.156 149.182C458.956 147.375 462.648 146.504 462.684 146.497L462.834 147.136C462.798 147.147 459.114 148.014 452.323 149.817C442.163 152.513 432.064 155.473 421.446 158.868C395.103 167.293 353.148 182.545 302.879 207.365C245.705 235.609 191.369 269.337 145.744 304.903C120.665 324.461 98.8805 344.064 81.0019 363.169C72.0518 372.737 64.0764 382.198 57.3076 391.284C50.5995 400.295 44.9696 409.074 40.5856 417.375C36.2802 425.522 33.0993 433.344 31.1322 440.62C29.2258 447.689 28.4333 454.351 28.7831 460.421C29.4222 471.435 34.5237 481.745 42.7812 488.707C50.5746 495.269 61.5024 499.939 75.2648 502.592C87.3922 504.923 101.094 505.669 117.145 504.87C130.386 504.209 144.309 502.538 159.714 499.768C171.398 497.665 183.222 495.052 195.864 491.785C216.706 486.397 228.951 482.238 229.072 482.195L229.286 482.816C229.165 482.859 216.898 487.026 196.032 492.42C183.376 495.691 171.534 498.304 159.835 500.41C144.405 503.188 130.454 504.859 117.184 505.523C113.036 505.73 109.041 505.834 105.189 505.834Z" fill="black" stroke="#282828"/>
<path d="M97.5348 563.231C95.6177 563.231 93.9434 562.964 92.4761 562.432C87.9886 560.8 85.8644 554.313 87.421 547.012C88.3599 542.614 90.1949 537.526 93.0259 531.46C95.9283 525.237 99.6876 518.4 104.514 510.56C109.423 502.585 115.106 494.112 121.886 484.662C128.626 475.265 136.316 465.119 144.745 454.498C153.174 443.88 162.445 432.655 172.309 421.13C182.084 409.706 192.565 397.835 203.457 385.85C243.617 341.662 289.606 295.51 336.448 252.378C377.41 214.67 410.401 187.301 430.861 170.981C439.086 164.423 446.844 158.389 454.583 152.534C459.742 148.632 462.537 146.575 462.566 146.558L462.955 147.086C462.927 147.107 460.135 149.157 454.98 153.059C447.247 158.91 439.493 164.941 431.271 171.495C410.819 187.808 377.842 215.166 336.891 252.86C290.059 295.977 244.088 342.115 203.939 386.289C193.054 398.271 182.576 410.134 172.805 421.552C162.948 433.073 153.681 444.294 145.259 454.901C136.837 465.512 129.151 475.655 122.418 485.041C115.649 494.48 109.973 502.938 105.071 510.899C100.259 518.722 96.5102 525.534 93.6185 531.735C90.8089 537.758 88.9918 542.799 88.06 547.148C86.5713 554.124 88.5205 560.293 92.6975 561.814C97.2064 563.453 103.857 562.471 113.625 558.737C122.129 555.48 131.679 550.636 143.677 543.481C153.416 537.672 163.834 530.864 175.533 522.67C184.351 516.494 193.401 509.871 203.193 502.427C219.369 490.132 228.876 482.331 228.969 482.252L229.386 482.759C229.29 482.838 219.776 490.642 203.589 502.949C193.786 510.396 184.733 517.022 175.908 523.21C164.198 531.414 153.763 538.229 144.013 544.045C131.982 551.218 122.4 556.084 113.861 559.351C107.053 561.953 101.715 563.231 97.5313 563.231H97.5348Z" fill="black" stroke="#282828"/>
<path d="M165.736 620.911C165.411 620.911 165.101 620.843 164.826 620.701C164.344 620.458 164.019 620.029 163.912 619.497C163.576 617.848 164.112 615.492 164.733 613.192C165.494 610.393 166.629 607.087 168.314 602.785C169.86 598.833 171.73 594.413 174.033 589.268C176.154 584.524 178.517 579.436 181.259 573.72C185.982 563.87 191.394 553.042 197.799 540.617C202.647 531.217 207.777 521.463 213.482 510.792C222.95 493.098 228.836 482.452 228.897 482.348L229.472 482.666C229.415 482.77 223.524 493.412 214.064 511.103C208.359 521.77 203.229 531.524 198.384 540.917C191.98 553.338 186.571 564.159 181.851 574.006C179.113 579.718 176.75 584.799 174.633 589.54C172.337 594.677 170.47 599.09 168.924 603.028C167.25 607.309 166.122 610.593 165.369 613.367C164.765 615.588 164.248 617.855 164.555 619.369C164.622 619.704 164.819 619.962 165.122 620.115C165.526 620.319 166.054 620.297 166.575 620.054C168.071 619.355 169.899 617.83 172.684 614.96C175.518 612.036 178.749 608.28 182.851 603.139C187.032 597.901 191.673 591.768 197.038 584.388C202.529 576.844 208.405 568.511 215.006 558.911C221.536 549.422 228.683 538.811 236.251 527.376C243.777 516.001 251.77 503.72 260.017 490.881C268.189 478.153 276.721 464.697 285.371 450.888C317.237 400.034 350.978 344.089 382.951 289.097C395.535 267.448 407.705 246.18 419.129 225.876C427.819 210.435 436.137 195.44 443.848 181.313C448.814 172.216 453.541 163.462 457.889 155.297C460.909 149.638 462.469 146.668 462.469 146.668L463.051 146.975C463.051 146.975 461.488 149.945 458.467 155.608C454.116 163.773 449.389 172.527 444.423 181.627C436.708 195.758 428.39 210.753 419.697 226.201C408.273 246.505 396.099 267.78 383.511 289.429C351.538 344.428 317.794 400.38 285.925 451.238C277.271 465.051 268.739 478.507 260.563 491.235C252.317 504.077 244.32 516.358 236.794 527.736C229.222 539.179 222.075 549.789 215.542 559.282C208.937 568.886 203.054 577.223 197.563 584.774C192.19 592.157 187.542 598.301 183.358 603.546C179.242 608.701 175.997 612.475 173.151 615.413C170.31 618.348 168.425 619.912 166.847 620.647C166.475 620.822 166.093 620.908 165.729 620.908L165.736 620.911Z" fill="black" stroke="#282828"/>
<path d="M261.878 657.879C256.741 657.879 251.871 656.415 248.023 653.552C241.743 648.875 236.577 640.628 232.668 629.042C229.248 618.889 226.881 606.736 225.435 591.884C224.25 579.663 223.768 566.453 223.968 551.501C224.118 540.205 224.65 528.57 225.592 515.931C227.152 495.081 228.841 482.582 228.859 482.461L229.512 482.55C229.494 482.675 227.809 495.153 226.249 515.981C225.306 528.606 224.775 540.227 224.625 551.508C224.428 566.435 224.907 579.62 226.092 591.819C227.531 606.618 229.887 618.724 233.293 628.832C237.159 640.285 242.246 648.425 248.415 653.023C254.759 657.739 263.981 658.543 272.481 655.119C277.325 653.162 282.495 649.949 287.839 645.569C293.34 641.056 299.12 635.237 305.011 628.264C311.012 621.163 317.227 612.759 323.486 603.283C329.794 593.726 336.238 582.94 342.639 571.223C349.033 559.52 355.473 546.721 361.781 533.186C368.015 519.812 374.219 505.513 380.22 490.683C402.305 436.095 421.736 374.445 436.413 312.395C442.21 287.874 447.194 263.554 451.221 240.105C454.295 222.204 456.833 204.696 458.764 188.066C460.01 177.32 460.985 167.213 461.738 157.159C462.242 150.447 462.434 146.837 462.434 146.802L463.091 146.834C463.091 146.87 462.899 150.486 462.392 157.205C461.638 167.266 460.664 177.384 459.414 188.137C457.483 204.782 454.945 222.301 451.867 240.212C447.837 263.676 442.853 288.01 437.052 312.541C422.368 374.623 402.926 436.305 380.827 490.926C374.823 505.763 368.614 520.076 362.377 533.457C356.062 547.006 349.615 559.82 343.217 571.533C336.809 583.265 330.354 594.069 324.035 603.64C317.763 613.137 311.53 621.563 305.514 628.682C299.595 635.686 293.787 641.534 288.253 646.072C282.855 650.495 277.632 653.744 272.724 655.722C269.15 657.165 265.448 657.872 261.874 657.872L261.878 657.879Z" fill="black" stroke="#282828"/>
<path d="M358.578 665.165C350.106 665.165 341.488 663.434 333.374 660.024C310.683 650.47 289.652 628.882 270.863 595.854C253.891 566 244.077 536.703 238.168 517.259C231.653 495.817 228.89 482.703 228.861 482.571L229.508 482.439C229.536 482.568 232.296 495.66 238.8 517.07C244.698 536.481 254.498 565.732 271.437 595.525C290.151 628.421 311.079 649.917 333.631 659.414C346.415 664.783 360.459 665.951 373.179 662.691C387.031 659.132 400.986 650.221 413.539 636.922C420.075 629.992 426.401 621.755 432.342 612.434C438.336 603.03 444.037 592.376 449.282 580.77C454.515 569.177 459.378 556.46 463.737 542.961C468.039 529.63 471.912 515.335 475.246 500.472C481.676 471.822 486.192 440.907 488.666 408.586C490.894 379.443 491.429 349.492 490.255 319.567C488.045 263.515 480.159 218.427 473.933 190.472C467.681 162.436 462.505 147.07 462.455 146.92L463.076 146.709C463.13 146.859 468.313 162.254 474.575 190.33C480.808 218.309 488.702 263.44 490.915 319.542C492.09 349.492 491.554 379.468 489.323 408.64C486.845 440.993 482.326 471.939 475.889 500.619C472.547 515.499 468.67 529.816 464.361 543.165C459.995 556.685 455.126 569.427 449.878 581.041C444.623 592.676 438.907 603.358 432.895 612.791C426.93 622.145 420.579 630.417 414.013 637.375C401.375 650.763 387.31 659.739 373.34 663.33C368.56 664.555 363.59 665.162 358.575 665.162L358.578 665.165Z" fill="black" stroke="#282828"/>
<path d="M432.959 641.741C425.105 641.741 417.186 640.934 409.339 639.278C377.391 632.512 344.693 614.408 312.153 585.464C289.879 565.639 269.484 542.479 249.795 514.657C235.979 495.128 228.964 482.796 228.893 482.671L229.464 482.346C229.532 482.468 236.536 494.774 250.331 514.275C269.991 542.058 290.354 565.182 312.588 584.975C345.043 613.84 377.638 631.895 409.471 638.639C445.779 646.297 483.753 635.686 508.575 610.941C522.363 597.174 534.062 578.32 542.408 556.414C550.851 534.228 556.228 508.623 558.381 480.308C560.433 453.249 559.505 424.17 555.628 393.88C552.108 366.426 546.189 338.268 538.039 310.181C507.843 206.263 462.947 147.608 462.497 147.026L463.015 146.623C463.464 147.205 508.44 205.96 538.671 309.999C546.832 338.114 552.754 366.311 556.278 393.795C560.162 424.131 561.09 453.256 559.034 480.358C556.874 508.737 551.487 534.403 543.019 556.649C534.64 578.642 522.887 597.574 509.036 611.405C489.426 630.956 461.654 641.745 432.948 641.745L432.959 641.741Z" fill="black" stroke="#282828"/>
<path d="M474.35 593.04C471.944 593.04 469.516 593.004 467.06 592.929C427.147 591.729 382.557 580.573 344.715 562.318C270.58 526.502 229.346 483.167 228.939 482.731L229.418 482.281C229.825 482.713 270.984 525.966 345.001 561.725C382.761 579.941 427.254 591.076 467.078 592.272C514.905 593.743 553.754 581.079 579.501 555.742C593.685 541.75 604.798 523.621 611.639 503.31C618.565 482.71 621.506 459.511 620.371 434.348C619.279 410.206 614.452 384.622 606.027 358.306C598.344 334.318 587.734 309.945 574.489 285.86C523.827 193.817 463.165 147.536 462.558 147.08L462.954 146.555C463.561 147.012 524.33 193.371 575.064 285.546C588.326 309.666 598.954 334.083 606.651 358.107C615.094 384.48 619.932 410.117 621.024 434.316C622.16 459.561 619.211 482.842 612.256 503.517C605.384 523.924 594.213 542.143 579.958 556.206C555.404 580.369 518.993 593.036 474.343 593.036L474.35 593.04Z" fill="black" stroke="#282828"/>
<path d="M447.617 537.326C420.417 537.326 392.331 534.67 365.26 529.414C281.593 513.127 229.531 483.095 229.014 482.791L229.346 482.224C229.86 482.524 281.836 512.502 365.385 528.768C445.253 544.274 559.912 540.757 620.181 479.814C647.577 452.038 661.193 409.788 655.717 369.555C652.929 349.155 646.017 328.12 635.175 307.038C625.236 287.716 612.063 268.501 596.03 249.94C570.983 220.96 541.212 195.43 505.019 171.888C479.222 155.115 462.782 147.197 462.618 147.118L462.904 146.525C463.068 146.604 479.544 154.544 505.38 171.338C541.623 194.912 571.439 220.482 596.526 249.511C612.595 268.115 625.793 287.37 635.761 306.738C646.635 327.888 653.568 348.991 656.367 369.466C661.872 409.899 648.184 452.359 620.645 480.278C592.917 508.318 552.536 526.298 500.632 533.717C483.742 536.13 465.877 537.33 447.613 537.33L447.617 537.326Z" fill="black" stroke="#282828"/>
</svg>
