<svg width="50" height="53" viewBox="0 0 50 53" fill="none" xmlns="http://www.w3.org/2000/svg">
<path d="M44.6601 4.64993C44.6394 4.61398 44.614 4.58027 44.5841 4.54974C39.2913 -0.849912 30.7003 -0.849912 25.4075 4.54974C25.0909 4.87269 24.8009 5.21332 24.5293 5.55552C24.2553 5.21009 23.9644 4.87325 23.6473 4.54974C18.3545 -0.849912 9.76352 -0.849912 4.47076 4.54974C1.82641 7.24748 0.5 10.784 0.5 14.3174C0.5 19.3573 2.38818 24.563 6.27649 30.5344C10.1629 36.5027 16.0708 43.2711 24.1615 51.4442C24.2554 51.5391 24.3834 51.5925 24.5168 51.5925C24.6503 51.5925 24.7783 51.5391 24.8722 51.4442C32.9629 43.2711 38.8708 36.5027 42.7572 30.5344C46.6455 24.563 48.5337 19.3573 48.5337 14.3174C48.5337 10.8275 47.2398 7.33471 44.6601 4.64993Z" fill="black" stroke="white" stroke-linejoin="round"/>
</svg>
