<svg width="35" height="21" viewBox="0 0 35 21" fill="none" xmlns="http://www.w3.org/2000/svg">
<path d="M17.5 0C10.8129 0 4.74865 3.68257 0.273857 9.66404C-0.0912857 10.1541 -0.0912857 10.8387 0.273857 11.3288C4.74865 17.3174 10.8129 21 17.5 21C24.1871 21 30.2514 17.3174 34.7261 11.336C35.0913 10.8459 35.0913 10.1613 34.7261 9.67124C30.2514 3.68257 24.1871 0 17.5 0ZM17.9797 17.894C13.5407 18.175 9.87496 14.4925 10.1542 10.0172C10.3833 6.32738 13.3546 3.33665 17.0203 3.10604C21.4593 2.82498 25.125 6.50755 24.8458 10.9828C24.6095 14.6654 21.6383 17.6561 17.9797 17.894ZM17.7577 14.478C15.3664 14.6294 13.3904 12.6476 13.5479 10.2406C13.6696 8.25154 15.2733 6.64448 17.2494 6.51476C19.6407 6.36342 21.6168 8.34523 21.4593 10.7522C21.3304 12.7485 19.7267 14.3555 17.7577 14.478Z" fill="#0A84FF"/>
</svg>
