<svg width="19" height="30" viewBox="0 0 19 30" fill="none" xmlns="http://www.w3.org/2000/svg">
<path d="M17.8715 0L13.1843 9.86174C13.1161 10.0075 12.9502 10.0791 12.7938 10.0321C12.4045 9.91697 12.0093 9.82061 11.6117 9.74423C11.5717 9.736 11.5317 9.72895 11.4929 9.7219C10.7648 9.58911 10.025 9.52213 9.28163 9.52213C8.9864 9.52213 8.69 9.5327 8.39594 9.55386C8.35125 9.55738 8.30655 9.55973 8.26186 9.56443C7.7702 9.60439 7.2809 9.67372 6.79865 9.77361C6.66103 9.80063 6.55047 9.65844 6.61046 9.5327L11.1283 0H17.8715Z" fill="#0A84FF"/>
<path d="M10.1933 5.49211L9.35938 3.7341L9.98041 2.42383L10.8214 4.16655L10.1933 5.49211Z" fill="#0A84FF"/>
<path d="M11.8469 8.98212L10.2578 5.63064V5.62946L10.8871 4.30273L12.4914 7.62602L11.8469 8.98212Z" fill="#0A84FF"/>
<path d="M13.3761 9.46116L13.1856 9.86189C13.1174 10.0076 12.9515 10.0793 12.7951 10.0323C12.4046 9.91594 12.0106 9.81958 11.613 9.74437C11.573 9.73615 11.5342 9.72792 11.4942 9.72204C10.7908 9.59278 10.078 9.52697 9.35938 9.52345C9.38525 9.52227 9.40995 9.52227 9.43583 9.52227C10.1286 9.52227 10.8226 9.57985 11.506 9.69737C11.546 9.70324 11.5859 9.71029 11.6259 9.71734C11.7236 9.73497 11.8212 9.75377 11.9188 9.77375C12.0564 9.80078 12.167 9.65859 12.107 9.53285L11.9106 9.11802L12.5563 7.76074L13.3761 9.46116Z" fill="#0A84FF"/>
<path d="M10.8842 4.30213L10.2549 5.62886L10.1914 5.49372V5.49255L10.8195 4.16699L10.8842 4.30213Z" fill="#CE9117"/>
<path d="M12.9246 0L10.885 4.30217L10.8203 4.16703L12.7952 0H12.9246Z" fill="#F9B906"/>
<path d="M12.5542 7.76112L11.9084 9.1184L11.8438 8.98208L12.4883 7.62598L12.5542 7.76112Z" fill="#CE9117"/>
<path d="M16.2427 0L12.5541 7.7606L12.4883 7.62546L16.1134 0H16.2427Z" fill="#F9B906"/>
<path d="M13.8306 9.99275V12.1432H13.3637V10.0539C13.1167 9.9528 12.865 9.85996 12.6097 9.7777C12.338 9.68956 12.0628 9.61318 11.7828 9.54737C11.0042 9.36523 10.1926 9.26887 9.35867 9.26887C8.52474 9.26887 7.71198 9.36523 6.9345 9.54855C6.65339 9.61436 6.37815 9.69074 6.10763 9.77887C5.85121 9.86113 5.5995 9.95397 5.35367 10.055V12.1444H4.88672V9.99392C4.88672 9.84351 4.97846 9.70719 5.11843 9.65196C5.38308 9.5462 5.77123 9.39931 5.90532 9.35465C6.3217 9.21833 6.74984 9.10435 7.18739 9.01856C7.88959 8.87754 8.61648 8.80469 9.35985 8.80469C10.1032 8.80469 10.8301 8.87872 11.5323 9.01856C11.9699 9.10552 12.3968 9.21951 12.8132 9.357C12.9473 9.40166 13.3354 9.54972 13.6013 9.65431C13.7412 9.70954 13.833 9.84586 13.833 9.99628L13.8306 9.99275Z" fill="#E8A615"/>
<path d="M9.35794 29.1753C14.5262 29.1753 18.7159 24.9895 18.7159 19.8259C18.7159 14.6624 14.5262 10.4766 9.35794 10.4766C4.18969 10.4766 0 14.6624 0 19.8259C0 24.9895 4.18969 29.1753 9.35794 29.1753Z" fill="#F9B906"/>
<path d="M9.35721 28.3434C14.0655 28.3434 17.8824 24.53 17.8824 19.826C17.8824 15.122 14.0655 11.3086 9.35721 11.3086C4.64888 11.3086 0.832031 15.122 0.832031 19.826C0.832031 24.53 4.64888 28.3434 9.35721 28.3434Z" fill="#E8A615"/>
<path d="M17.3637 19.8259C17.3637 24.235 13.7739 27.8227 9.35958 27.8227C8.1081 27.8227 6.92248 27.5348 5.86624 27.0201C4.76413 26.4842 3.80434 25.7028 3.05509 24.7485C2.71282 24.3126 2.41523 23.8402 2.16941 23.3384C1.64835 22.2772 1.35547 21.0845 1.35547 19.8259C1.35547 18.8917 1.51661 17.995 1.81301 17.1607C2.70341 14.6494 4.81823 12.7105 7.4353 12.063C8.05164 11.9102 8.69738 11.8291 9.36076 11.8291C10.8369 11.8291 12.2213 12.2298 13.4093 12.929C13.9398 13.2416 14.4302 13.6118 14.8737 14.0337C15.7099 14.828 16.3733 15.8011 16.805 16.8904C17.1661 17.8 17.3637 18.7894 17.3637 19.8259Z" fill="#F9B906"/>
<path d="M13.4081 12.929L2.16941 23.3384C1.64835 22.2772 1.35547 21.0845 1.35547 19.8259C1.35547 18.8917 1.51661 17.995 1.81301 17.1607L7.4353 12.063C8.05164 11.9102 8.69738 11.8291 9.36076 11.8291C10.8369 11.8291 12.2213 12.2298 13.4093 12.929H13.4081Z" fill="#FFC943"/>
<path d="M16.8034 16.8907L5.86583 27.0216C4.76372 26.4857 3.80393 25.7043 3.05469 24.75L14.8709 14.0352C15.7072 14.8295 16.3706 15.8026 16.8022 16.8919L16.8034 16.8907Z" fill="#FFC943"/>
<path d="M11.9166 9.77361C11.4344 9.67372 10.9451 9.60439 10.4534 9.56443C10.4087 9.55973 10.364 9.55738 10.3193 9.55386C10.0253 9.5327 9.72885 9.52213 9.43362 9.52213C8.69025 9.52213 7.95042 9.58911 7.22234 9.7219C7.18353 9.72895 7.14354 9.736 7.10355 9.74423C6.70599 9.82061 6.31078 9.91697 5.92145 10.0321C5.76502 10.0791 5.59917 10.0075 5.53095 9.86174L0.84375 0H7.58697L12.1048 9.5327C12.1648 9.65844 12.0542 9.80063 11.9166 9.77361Z" fill="#0A84FF"/>
<path d="M10.4555 9.56443C10.4108 9.55973 10.3661 9.55738 10.3214 9.55386L5.79297 0H5.92235L10.4555 9.56443Z" fill="#F9B906"/>
<path d="M7.22337 9.7219C7.18456 9.72895 7.14457 9.736 7.10458 9.74423L2.47266 0H2.60204L7.22337 9.7219Z" fill="#F9B906"/>
</svg>
