<svg width="19" height="30" viewBox="0 0 19 30" fill="none" xmlns="http://www.w3.org/2000/svg">
<path d="M17.8676 0L13.1804 9.86174C13.1122 10.0075 12.9463 10.0791 12.7899 10.0321C12.4006 9.91697 12.0054 9.82061 11.6078 9.74423C11.5678 9.736 11.5278 9.72895 11.489 9.7219C10.7609 9.58911 10.0211 9.52213 9.27773 9.52213C8.9825 9.52213 8.68609 9.5327 8.39204 9.55385C8.34734 9.55738 8.30265 9.55973 8.25795 9.56443C7.76629 9.60439 7.27699 9.67372 6.79474 9.77361C6.65713 9.80063 6.54656 9.65844 6.60655 9.5327L11.1244 0H17.8676Z" fill="#0A84FF"/>
<path d="M10.1894 5.49211L9.35547 3.7341L9.97651 2.42383L10.8175 4.16655L10.1894 5.49211Z" fill="#0A84FF"/>
<path d="M11.843 8.98213L10.2539 5.63064V5.62946L10.8832 4.30273L12.4875 7.62602L11.843 8.98213Z" fill="#0A84FF"/>
<path d="M13.3722 9.46116L13.1817 9.86189C13.1135 10.0076 12.9476 10.0793 12.7912 10.0323C12.4007 9.91594 12.0066 9.81958 11.6091 9.74437C11.5691 9.73615 11.5303 9.72792 11.4903 9.72204C10.7869 9.59278 10.0741 9.52697 9.35547 9.52345C9.38135 9.52227 9.40605 9.52227 9.43192 9.52227C10.1247 9.52227 10.8187 9.57985 11.5021 9.69737C11.542 9.70324 11.582 9.71029 11.622 9.71734C11.7197 9.73497 11.8173 9.75377 11.9149 9.77375C12.0525 9.80078 12.1631 9.65859 12.1031 9.53285L11.9067 9.11802L12.5524 7.76074L13.3722 9.46116Z" fill="#0A84FF"/>
<path d="M10.8803 4.30213L10.251 5.62886L10.1875 5.49372V5.49255L10.8156 4.16699L10.8803 4.30213Z" fill="#CE9117"/>
<path d="M12.9206 0L10.8811 4.30217L10.8164 4.16703L12.7913 0H12.9206Z" fill="#F9B906"/>
<path d="M12.5503 7.76014L11.9045 9.11742L11.8398 8.98111L12.4844 7.625L12.5503 7.76014Z" fill="#CE9117"/>
<path d="M16.2427 0L12.5541 7.7606L12.4883 7.62546L16.1134 0H16.2427Z" fill="#F9B906"/>
<path d="M13.8267 9.99177V12.1423H13.3598V10.0529C13.1128 9.95182 12.8611 9.85898 12.6058 9.77672C12.3341 9.68859 12.0589 9.6122 11.7789 9.5464C11.0003 9.36425 10.1887 9.26789 9.35477 9.26789C8.52083 9.26789 7.70807 9.36425 6.9306 9.54757C6.64948 9.61338 6.37425 9.68976 6.10372 9.7779C5.84731 9.86016 5.5956 9.95299 5.34977 10.0541V12.1434H4.88281V9.99295C4.88281 9.84253 4.97456 9.70622 5.11453 9.65098C5.37917 9.54522 5.76732 9.39833 5.90141 9.35367C6.31779 9.21736 6.74593 9.10337 7.18348 9.01759C7.88568 8.87657 8.61258 8.80371 9.35595 8.80371C10.0993 8.80371 10.8262 8.87774 11.5284 9.01759C11.966 9.10455 12.3929 9.21853 12.8093 9.35603C12.9434 9.40068 13.3315 9.54875 13.5974 9.65333C13.7373 9.70857 13.8291 9.84488 13.8291 9.9953L13.8267 9.99177Z" fill="#C3DBDA"/>
<path d="M9.35794 29.1753C14.5262 29.1753 18.7159 24.9895 18.7159 19.8259C18.7159 14.6624 14.5262 10.4766 9.35794 10.4766C4.18969 10.4766 0 14.6624 0 19.8259C0 24.9895 4.18969 29.1753 9.35794 29.1753Z" fill="#EBF2F2"/>
<path d="M9.35721 28.3434C14.0655 28.3434 17.8824 24.53 17.8824 19.826C17.8824 15.122 14.0655 11.3086 9.35721 11.3086C4.64888 11.3086 0.832031 15.122 0.832031 19.826C0.832031 24.53 4.64888 28.3434 9.35721 28.3434Z" fill="#C3DBDA"/>
<path d="M17.3598 19.8259C17.3598 24.235 13.77 27.8227 9.35568 27.8227C8.10419 27.8227 6.91857 27.5348 5.86233 27.0201C4.76022 26.4842 3.80044 25.7028 3.05119 24.7485C2.70891 24.3126 2.41133 23.8402 2.1655 23.3384C1.64444 22.2772 1.35156 21.0845 1.35156 19.8259C1.35156 18.8917 1.5127 17.995 1.80911 17.1607C2.6995 14.6494 4.81433 12.7105 7.4314 12.063C8.04773 11.9102 8.69347 11.8291 9.35686 11.8291C10.833 11.8291 12.2174 12.2298 13.4054 12.929C13.9358 13.2416 14.4263 13.6118 14.8698 14.0337C15.706 14.828 16.3694 15.8011 16.8011 16.8904C17.1622 17.8 17.3598 18.7894 17.3598 19.8259Z" fill="#EBF2F2"/>
<path d="M13.4042 12.929L2.1655 23.3384C1.64444 22.2772 1.35156 21.0845 1.35156 19.8259C1.35156 18.8917 1.5127 17.995 1.80911 17.1607L7.4314 12.063C8.04773 11.9102 8.69347 11.8291 9.35686 11.8291C10.833 11.8291 12.2174 12.2298 13.4054 12.929H13.4042Z" fill="white"/>
<path d="M16.7995 16.8898L5.86193 27.0206C4.75982 26.4847 3.80003 25.7033 3.05078 24.7491L14.867 14.0342C15.7033 14.8286 16.3667 15.8016 16.7983 16.8909L16.7995 16.8898Z" fill="white"/>
<path d="M11.9127 9.77361C11.4305 9.67372 10.9411 9.60439 10.4495 9.56443C10.4048 9.55973 10.3601 9.55738 10.3154 9.55385C10.0213 9.5327 9.72494 9.52213 9.42971 9.52213C8.68635 9.52213 7.94651 9.58911 7.21844 9.7219C7.17962 9.72895 7.13963 9.736 7.09964 9.74423C6.70208 9.82061 6.30687 9.91697 5.91755 10.0321C5.76111 10.0791 5.59527 10.0075 5.52705 9.86174L0.839844 0H7.58306L12.1009 9.5327C12.1609 9.65844 12.0503 9.80063 11.9127 9.77361Z" fill="#0A84FF"/>
<path d="M10.4516 9.56443C10.4069 9.55973 10.3622 9.55738 10.3175 9.55385L5.78906 0H5.91844L10.4516 9.56443Z" fill="#F9B906"/>
<path d="M7.21947 9.7219C7.18065 9.72895 7.14066 9.736 7.10067 9.74423L2.46875 0H2.59813L7.21947 9.7219Z" fill="#F9B906"/>
</svg>
