<svg width="19" height="30" viewBox="0 0 19 30" fill="none" xmlns="http://www.w3.org/2000/svg">
<path d="M17.8715 0L13.1843 9.86174C13.1161 10.0075 12.9502 10.0791 12.7938 10.0321C12.4045 9.91697 12.0093 9.82061 11.6117 9.74423C11.5717 9.736 11.5317 9.72895 11.4929 9.7219C10.7648 9.58911 10.025 9.52213 9.28163 9.52213C8.9864 9.52213 8.69 9.5327 8.39594 9.55385C8.35125 9.55738 8.30655 9.55973 8.26185 9.56443C7.7702 9.60439 7.28089 9.67372 6.79865 9.77361C6.66103 9.80063 6.55047 9.65844 6.61046 9.5327L11.1283 0H17.8715Z" fill="#0A84FF"/>
<path d="M10.1894 5.49211L9.35547 3.7341L9.97651 2.42383L10.8175 4.16655L10.1894 5.49211Z" fill="#0A84FF"/>
<path d="M11.843 8.98115L10.2539 5.62966V5.62849L10.8832 4.30176L12.4875 7.62504L11.843 8.98115Z" fill="#0A84FF"/>
<path d="M13.3722 9.46019L13.1817 9.86091C13.1135 10.0066 12.9476 10.0783 12.7912 10.0313C12.4007 9.91497 12.0066 9.8186 11.6091 9.74339C11.5691 9.73517 11.5303 9.72694 11.4903 9.72107C10.7869 9.5918 10.0741 9.526 9.35547 9.52247C9.38135 9.52129 9.40605 9.52129 9.43192 9.52129C10.1247 9.52129 10.8187 9.57888 11.5021 9.69639C11.542 9.70226 11.582 9.70932 11.622 9.71637C11.7197 9.73399 11.8173 9.7528 11.9149 9.77277C12.0525 9.7998 12.1631 9.65761 12.1031 9.53187L11.9067 9.11705L12.5524 7.75977L13.3722 9.46019Z" fill="#0A84FF"/>
<path d="M10.8842 4.30116L10.2549 5.62788L10.1914 5.49274V5.49157L10.8195 4.16602L10.8842 4.30116Z" fill="#CE9117"/>
<path d="M12.9246 0L10.885 4.30217L10.8203 4.16703L12.7952 0H12.9246Z" fill="#F9B906"/>
<path d="M12.5542 7.76014L11.9084 9.11742L11.8438 8.98111L12.4883 7.625L12.5542 7.76014Z" fill="#CE9117"/>
<path d="M16.2427 0L12.5541 7.7606L12.4883 7.62546L16.1134 0H16.2427Z" fill="#F9B906"/>
<path d="M13.8267 9.99177V12.1423H13.3598V10.0529C13.1128 9.95182 12.8611 9.85898 12.6058 9.77672C12.3341 9.68859 12.0589 9.6122 11.7789 9.5464C11.0003 9.36425 10.1887 9.26789 9.35477 9.26789C8.52083 9.26789 7.70807 9.36425 6.9306 9.54757C6.64948 9.61338 6.37425 9.68976 6.10372 9.7779C5.84731 9.86016 5.5956 9.95299 5.34977 10.0541V12.1434H4.88281V9.99295C4.88281 9.84253 4.97456 9.70622 5.11453 9.65098C5.37917 9.54522 5.76732 9.39833 5.90141 9.35367C6.31779 9.21736 6.74593 9.10337 7.18348 9.01759C7.88568 8.87657 8.61258 8.80371 9.35594 8.80371C10.0993 8.80371 10.8262 8.87774 11.5284 9.01759C11.966 9.10455 12.3929 9.21853 12.8093 9.35603C12.9434 9.40068 13.3315 9.54875 13.5974 9.65333C13.7373 9.70857 13.8291 9.84488 13.8291 9.9953L13.8267 9.99177Z" fill="#BA6017"/>
<path d="M9.35794 29.1743C14.5262 29.1743 18.7159 24.9885 18.7159 19.825C18.7159 14.6614 14.5262 10.4756 9.35794 10.4756C4.18969 10.4756 0 14.6614 0 19.825C0 24.9885 4.18969 29.1743 9.35794 29.1743Z" fill="#E37F22"/>
<path d="M9.35721 28.3424C14.0655 28.3424 17.8824 24.529 17.8824 19.825C17.8824 15.121 14.0655 11.3076 9.35721 11.3076C4.64889 11.3076 0.832031 15.121 0.832031 19.825C0.832031 24.529 4.64889 28.3424 9.35721 28.3424Z" fill="#BA6017"/>
<path d="M17.3598 19.8249C17.3598 24.234 13.77 27.8217 9.35568 27.8217C8.10419 27.8217 6.91857 27.5338 5.86233 27.0191C4.76022 26.4832 3.80043 25.7018 3.05119 24.7476C2.70891 24.3116 2.41133 23.8392 2.1655 23.3374C1.64444 22.2763 1.35156 21.0835 1.35156 19.8249C1.35156 18.8907 1.5127 17.9941 1.80911 17.1597C2.6995 14.6485 4.81433 12.7095 7.4314 12.062C8.04773 11.9092 8.69347 11.8281 9.35685 11.8281C10.833 11.8281 12.2174 12.2288 13.4054 12.9281C13.9358 13.2406 14.4263 13.6108 14.8698 14.0327C15.706 14.8271 16.3694 15.8001 16.8011 16.8894C17.1622 17.799 17.3598 18.7885 17.3598 19.8249Z" fill="#E37F22"/>
<path d="M13.4042 12.9281L2.1655 23.3374C1.64444 22.2763 1.35156 21.0835 1.35156 19.8249C1.35156 18.8907 1.5127 17.9941 1.80911 17.1597L7.4314 12.062C8.04773 11.9092 8.69347 11.8281 9.35685 11.8281C10.833 11.8281 12.2174 12.2288 13.4054 12.9281H13.4042Z" fill="#F79A4D"/>
<path d="M16.7995 16.8898L5.86193 27.0206C4.75982 26.4847 3.80003 25.7033 3.05078 24.7491L14.867 14.0342C15.7033 14.8286 16.3667 15.8016 16.7983 16.8909L16.7995 16.8898Z" fill="#F79A4D"/>
<path d="M11.9166 9.77361C11.4344 9.67372 10.9451 9.60439 10.4534 9.56443C10.4087 9.55973 10.364 9.55738 10.3193 9.55385C10.0253 9.5327 9.72885 9.52213 9.43362 9.52213C8.69025 9.52213 7.95042 9.58911 7.22234 9.7219C7.18353 9.72895 7.14354 9.736 7.10355 9.74423C6.70599 9.82061 6.31078 9.91697 5.92146 10.0321C5.76502 10.0791 5.59917 10.0075 5.53095 9.86174L0.84375 0H7.58697L12.1048 9.5327C12.1648 9.65844 12.0542 9.80063 11.9166 9.77361Z" fill="#0A84FF"/>
<path d="M10.4555 9.56443C10.4108 9.55973 10.3661 9.55738 10.3214 9.55385L5.79297 0H5.92235L10.4555 9.56443Z" fill="#F9B906"/>
<path d="M7.22337 9.7219C7.18456 9.72895 7.14457 9.736 7.10458 9.74423L2.47266 0H2.60204L7.22337 9.7219Z" fill="#F9B906"/>
</svg>
