<svg width="198" height="400" viewBox="0 0 198 400" fill="none" xmlns="http://www.w3.org/2000/svg">
<rect x="4.04297" y="3.15723" width="188.531" height="392.893" rx="30.2225" fill="black"/>
<path d="M5.40929 18.7863C3.58759 22.3616 2.68577 26.4737 2.23607 31.9778C1.78699 37.4743 1.78699 44.3905 1.78699 53.5817V53.5989L1.78699 77.0921H1.57339C1.05801 77.0921 0.640208 77.5099 0.640208 78.0253L0.640208 92.1689C0.640208 92.6842 1.05801 93.102 1.57339 93.102H1.78699L1.78699 105.762H1.57339C1.05801 105.762 0.640208 106.179 0.640208 106.695L0.640208 136.129C0.640208 136.644 1.05801 137.062 1.57339 137.062H1.78699L1.78699 143.987H1.57339C1.05801 143.987 0.640208 144.405 0.640208 144.921L0.640208 174.355C0.640208 174.87 1.05801 175.288 1.57339 175.288H1.78699L1.78699 346.333V346.35C1.78699 355.541 1.78699 362.458 2.23607 367.954C2.68577 373.458 3.58759 377.57 5.40929 381.146C8.59555 387.399 13.6797 392.483 19.9331 395.67C23.5084 397.491 27.6205 398.393 33.1246 398.843C38.6211 399.292 45.5375 399.292 54.7288 399.292H54.7457H142.589H142.606C151.797 399.292 158.713 399.292 164.21 398.843C169.714 398.393 173.826 397.491 177.401 395.67C183.655 392.483 188.739 387.399 191.925 381.146C193.747 377.57 194.649 373.458 195.098 367.954C195.548 362.458 195.548 355.542 195.548 346.351V346.333L195.548 174.906H195.57C196.191 174.906 196.694 174.402 196.694 173.781V127.91C196.694 127.289 196.191 126.786 195.57 126.786H195.548V53.5989V53.5811C195.548 44.3902 195.548 37.4742 195.098 31.9778C194.649 26.4737 193.747 22.3616 191.925 18.7863C188.739 12.5329 183.655 7.44877 177.401 4.26251C173.826 2.44081 169.714 1.53899 164.21 1.08929C158.713 0.640208 151.797 0.640208 142.606 0.640208H142.589L54.7457 0.640208H54.7285C45.5373 0.640208 38.6211 0.640208 33.1246 1.08929C27.6205 1.53899 23.5084 2.44081 19.9331 4.26251C13.6797 7.44877 8.59555 12.5329 5.40929 18.7863ZM117.717 5.34644L117.402 5.17337L117.717 5.3464C117.746 5.2944 117.776 5.23641 117.806 5.17866C117.911 4.97768 118.022 4.76796 118.145 4.60723C118.283 4.42696 118.354 4.41787 118.354 4.41787H144.424C152.779 4.41787 159.024 4.41815 163.978 4.82289C168.927 5.2273 172.557 6.03369 175.686 7.62843C181.229 10.4525 185.735 14.9588 188.559 20.5014C190.154 23.6312 190.96 27.2604 191.365 32.2101C191.77 37.164 191.77 43.4088 191.77 51.764L191.77 348.168C191.77 356.523 191.77 362.768 191.365 367.722C190.96 372.672 190.154 376.301 188.559 379.431C185.735 384.973 181.229 389.479 175.686 392.304C172.557 393.898 168.927 394.705 163.978 395.109C159.024 395.514 152.779 395.514 144.424 395.514H52.9108C44.5556 395.514 38.3107 395.514 33.3569 395.109C28.4072 394.705 24.778 393.898 21.6481 392.304C16.1056 389.479 11.5993 384.973 8.77521 379.431C7.18047 376.301 6.37408 372.672 5.96967 367.722C5.56493 362.768 5.56465 356.523 5.56465 348.168L5.56465 51.764C5.56465 43.4088 5.56493 37.164 5.96967 32.2101C6.37408 27.2604 7.18047 23.6312 8.77521 20.5014C11.5993 14.9588 16.1056 10.4525 21.6481 7.62843C24.778 6.03369 28.4072 5.2273 33.3569 4.82289C38.3107 4.41815 44.5556 4.41787 52.9108 4.41787L78.5987 4.41787C78.5982 4.41787 78.6692 4.42696 78.8071 4.60723C78.93 4.76796 79.0408 4.97769 79.1459 5.17869L79.1472 5.18114C79.177 5.23803 79.2069 5.29515 79.235 5.34644C79.555 5.92958 80.1755 6.32619 80.8892 6.32619L116.063 6.32619C116.777 6.32619 117.397 5.92958 117.717 5.34644Z" fill="black" stroke="white" stroke-width="0.719584"/>
<mask id="mask0_3112_1361" style="mask-type:alpha" maskUnits="userSpaceOnUse" x="10" y="9" width="177" height="381">
<path d="M10.9646 9.5632L186.039 9.5632L186.039 389.529H10.9646L10.9646 9.5632ZM78.8156 15.2971C74.4877 15.2971 70.9793 18.8055 70.9793 23.1334C70.9793 27.4613 74.4877 30.9697 78.8156 30.9697H118.188C122.516 30.9697 126.025 27.4613 126.025 23.1334C126.025 18.8055 122.516 15.2971 118.188 15.2971L78.8156 15.2971ZM114.557 23.1334C114.557 21.1278 116.183 19.5019 118.188 19.5019C120.194 19.5019 121.82 21.1278 121.82 23.1334C121.82 25.139 120.194 26.7649 118.188 26.7649C116.183 26.7649 114.557 25.139 114.557 23.1334Z" fill="black" stroke="black" stroke-width="0.382259"/>
</mask>
<g mask="url(#mask0_3112_1361)">
<rect x="10.8364" y="9.88714" width="174.737" height="379.629" rx="23.7225" fill="#010101"/>
<rect x="10.8364" y="9.88714" width="174.737" height="379.629" rx="23.7225" stroke="white" stroke-width="0.719584"/>
<path d="M118.131 178.285C113.035 173.086 104.766 173.086 99.6689 178.285C99.2142 178.749 98.8124 179.256 98.4317 179.763C98.051 179.246 97.6492 178.749 97.1945 178.285C92.0978 173.086 83.8289 173.086 78.7321 178.285C76.1838 180.885 74.9043 184.294 74.9043 187.703C74.9043 197.52 82.2533 208.146 98.4211 224.478C114.589 208.146 121.938 197.52 121.938 187.703C121.938 184.294 120.658 180.885 118.11 178.285H118.131Z" fill="white"/>
<g filter="url(#filter0_d_3112_1361)">
<g filter="url(#filter1_f_3112_1361)">
<path d="M116.227 178.693C111.13 173.493 102.861 173.493 97.7646 178.693C97.3099 179.157 96.9081 179.664 96.5274 180.171C96.1467 179.653 95.7449 179.157 95.2902 178.693C90.1935 173.493 81.9246 173.493 76.8278 178.693C74.2795 181.293 73 184.701 73 188.11C73 197.927 80.349 208.553 96.5168 224.885C112.685 208.553 120.034 197.927 120.034 188.11C120.034 184.701 118.754 181.293 116.206 178.693H116.227Z" fill="white"/>
</g>
</g>
</g>
<defs>
<filter id="filter0_d_3112_1361" x="63" y="168.793" width="67.0332" height="70.0928" filterUnits="userSpaceOnUse" color-interpolation-filters="sRGB">
<feFlood flood-opacity="0" result="BackgroundImageFix"/>
<feColorMatrix in="SourceAlpha" type="matrix" values="0 0 0 0 0 0 0 0 0 0 0 0 0 0 0 0 0 0 127 0" result="hardAlpha"/>
<feOffset dy="4"/>
<feGaussianBlur stdDeviation="5"/>
<feComposite in2="hardAlpha" operator="out"/>
<feColorMatrix type="matrix" values="0 0 0 0 0 0 0 0 0 0 0 0 0 0 0 0 0 0 0.25 0"/>
<feBlend mode="normal" in2="BackgroundImageFix" result="effect1_dropShadow_3112_1361"/>
<feBlend mode="normal" in="SourceGraphic" in2="effect1_dropShadow_3112_1361" result="shape"/>
</filter>
<filter id="filter1_f_3112_1361" x="33" y="134.793" width="127.033" height="130.093" filterUnits="userSpaceOnUse" color-interpolation-filters="sRGB">
<feFlood flood-opacity="0" result="BackgroundImageFix"/>
<feBlend mode="normal" in="SourceGraphic" in2="BackgroundImageFix" result="shape"/>
<feGaussianBlur stdDeviation="20" result="effect1_foregroundBlur_3112_1361"/>
</filter>
</defs>
</svg>
