<svg width="1440" height="1122" viewBox="0 0 1440 1122" fill="none" xmlns="http://www.w3.org/2000/svg">
<g clip-path="url(#clip0_5101_140)">
<path d="M386.24 160H1052.24C1120.17 160 1175.24 215.069 1175.24 283V1048C1175.24 1088.32 1142.56 1121 1102.24 1121H336.24C295.923 1121 263.24 1088.32 263.24 1048V283C263.24 215.069 318.309 160 386.24 160Z" stroke="white" stroke-width="2"/>
<path d="M386.24 49H1052.24C1120.17 49 1175.24 104.069 1175.24 172V986C1175.24 1026.32 1142.56 1059 1102.24 1059H336.24C295.923 1059 263.24 1026.32 263.24 986V172C263.24 104.069 318.309 49 386.24 49Z" fill="black" stroke="white" stroke-width="2"/>
<rect x="550.24" y="28" width="331" height="61" rx="30.5" fill="black" stroke="white" stroke-width="2"/>
<path d="M1200.24 623H1248.24C1280.82 623 1307.24 649.415 1307.24 682V766C1307.24 798.585 1280.82 825 1248.24 825H1200.24V623Z" fill="black" stroke="white" stroke-width="2"/>
<path d="M1200.24 569H1248.24C1280.82 569 1307.24 595.415 1307.24 628V712C1307.24 744.585 1280.82 771 1248.24 771H1200.24V569Z" fill="black" stroke="white" stroke-width="2"/>
<path d="M1175.24 599H1203.24C1213.73 599 1222.24 607.507 1222.24 618V845C1222.24 855.493 1213.73 864 1203.24 864H1175.24V599Z" fill="black" stroke="white" stroke-width="2"/>
<path d="M1175.24 529H1203.24C1213.73 529 1222.24 537.507 1222.24 548V813C1222.24 823.493 1213.73 832 1203.24 832H1175.24V529Z" fill="black" stroke="white" stroke-width="2"/>
<rect x="1286.24" y="702" width="50" height="107" transform="rotate(-180 1286.24 702)" fill="url(#paint0_linear_5101_140)"/>
<rect x="550.24" y="1" width="331" height="72" rx="36" fill="black" stroke="white" stroke-width="2"/>
<line x1="334.24" y1="184.5" x2="1119.24" y2="184.5" stroke="white"/>
<line x1="334.24" y1="441.5" x2="1119.24" y2="441.5" stroke="white"/>
<rect x="302.24" y="605" width="154" height="342" rx="21" fill="black" stroke="white" stroke-width="2"/>
<rect x="473.24" y="605" width="154" height="342" rx="21" fill="black" stroke="white" stroke-width="2"/>
<rect x="644.24" y="605" width="154" height="342" rx="21" fill="black" stroke="white" stroke-width="2"/>
<rect x="815.24" y="605" width="154" height="342" rx="21" fill="black" stroke="white" stroke-width="2"/>
<rect x="986.24" y="605" width="154" height="342" rx="21" fill="black" stroke="white" stroke-width="2"/>
<rect x="1147.24" y="604" width="60" height="854" transform="rotate(90 1147.24 604)" fill="url(#paint1_linear_5101_140)"/>
<rect x="293.24" y="948" width="60" height="854" transform="rotate(-90 293.24 948)" fill="url(#paint2_linear_5101_140)"/>
<path d="M732.541 34.8314C740.03 37.1462 745.885 43.4309 748.047 51.4746C750.202 43.4309 756.057 37.1462 763.552 34.8314C756.063 32.5166 750.208 26.2319 748.047 18.1882C745.891 26.2319 740.036 32.5166 732.541 34.8314Z" fill="#17CF8D"/>
<g filter="url(#filter0_f_5101_140)">
<path d="M732.67 41.8568C740.159 44.1716 746.014 50.4563 748.175 58.5C750.331 50.4563 756.186 44.1716 763.681 41.8568C756.192 39.542 750.337 33.2573 748.175 25.2136C746.02 33.2573 740.165 39.542 732.67 41.8568Z" fill="#17CF8D"/>
</g>
<path d="M687.751 19.7996C687.751 19.7996 675.416 29.1433 675.416 38.1847C675.416 41.4875 678.06 44.1629 681.324 44.1629C684.154 44.1629 686.516 42.1492 687.097 39.4625C686.922 46.0624 685.434 49.3025 685.434 49.3025H690.073C690.073 49.3025 688.585 46.0624 688.41 39.4625C688.991 42.1492 691.353 44.1629 694.183 44.1629C697.447 44.1629 700.091 41.4875 700.091 38.1847C700.091 29.1433 687.756 19.7996 687.756 19.7996H687.751Z" fill="#F24E1E"/>
<g filter="url(#filter1_f_5101_140)">
<path d="M687.559 25.78C687.559 25.78 675.224 35.1238 675.224 44.1652C675.224 47.468 677.868 50.1433 681.133 50.1433C683.963 50.1433 686.325 48.1297 686.905 45.443C686.731 52.0429 685.242 55.283 685.242 55.283H689.882C689.882 55.283 688.394 52.0429 688.219 45.443C688.8 48.1297 691.162 50.1433 693.992 50.1433C697.256 50.1433 699.9 47.468 699.9 44.1652C699.9 35.1238 687.565 25.78 687.565 25.78H687.559Z" fill="#F24E1E"/>
</g>
<path d="M642.14 33.0785C639.742 30.8898 636.208 30.4955 633.385 32.0997L630.259 33.8738L630.14 33.7038L633.014 31.6171C635.619 29.7274 636.708 26.3764 635.711 23.3176C634.718 20.2589 631.868 18.1891 628.647 18.1891C625.426 18.1891 622.576 20.2589 621.583 23.3176C620.59 26.3764 621.678 29.7274 624.28 31.6171L626.991 33.5849L626.858 33.7718L623.913 32.0997C621.09 30.4955 617.556 30.8932 615.158 33.0785C612.76 35.2672 612.046 38.7474 613.386 41.7042C614.726 44.6576 617.821 46.4147 621.045 46.0544C624.27 45.6942 626.899 43.2982 627.552 40.1204L628.174 37.0991L628.514 37.1874L626.994 50.8227L630.297 50.8737L628.773 37.1364L629.11 37.0447L629.742 40.1204C630.395 43.2982 633.024 45.6942 636.249 46.0544C639.473 46.4147 642.568 44.661 643.908 41.7042C645.248 38.7508 644.534 35.2672 642.136 33.0785H642.14Z" fill="#0A84FF"/>
<g filter="url(#filter2_f_5101_140)">
<path d="M640.917 37.271C638.519 35.0823 634.985 34.688 632.162 36.2922L629.037 38.0663L628.917 37.8963L631.791 35.8096C634.397 33.9199 635.485 30.5689 634.489 27.5101C633.495 24.4514 630.645 22.3816 627.424 22.3816C624.203 22.3816 621.353 24.4514 620.36 27.5101C619.367 30.5689 620.455 33.9199 623.057 35.8096L625.768 37.7774L625.635 37.9643L622.69 36.2922C619.867 34.688 616.333 35.0857 613.935 37.271C611.537 39.4597 610.823 42.9399 612.163 45.8967C613.503 48.8501 616.598 50.6072 619.823 50.247C623.047 49.8867 625.676 47.4907 626.329 44.3129L626.952 41.2916L627.292 41.3799L625.771 55.0152L629.074 55.0662L627.55 41.3289L627.887 41.2372L628.52 44.3129C629.173 47.4907 631.802 49.8867 635.026 50.247C638.25 50.6072 641.345 48.8535 642.686 45.8967C644.026 42.9433 643.311 39.4597 640.914 37.271H640.917Z" fill="#0A84FF"/>
</g>
<g filter="url(#filter3_d_5101_140)">
<path d="M820.343 22.859C817.457 19.9151 812.775 19.9151 809.89 22.859C809.632 23.1216 809.405 23.4086 809.189 23.6957C808.974 23.4025 808.746 23.1216 808.489 22.859C805.603 19.9151 800.922 19.9151 798.036 22.859C796.593 24.3309 795.869 26.2609 795.869 28.1909C795.869 33.7488 800.03 39.7649 809.183 49.0118C818.337 39.7649 822.498 33.7488 822.498 28.1909C822.498 26.2609 821.773 24.3309 820.331 22.859H820.343Z" fill="white"/>
</g>
</g>
<defs>
<filter id="filter0_f_5101_140" x="692.67" y="-14.7864" width="111.011" height="113.286" filterUnits="userSpaceOnUse" color-interpolation-filters="sRGB">
<feFlood flood-opacity="0" result="BackgroundImageFix"/>
<feBlend mode="normal" in="SourceGraphic" in2="BackgroundImageFix" result="shape"/>
<feGaussianBlur stdDeviation="20" result="effect1_foregroundBlur_5101_140"/>
</filter>
<filter id="filter1_f_5101_140" x="635.224" y="-14.22" width="104.675" height="109.503" filterUnits="userSpaceOnUse" color-interpolation-filters="sRGB">
<feFlood flood-opacity="0" result="BackgroundImageFix"/>
<feBlend mode="normal" in="SourceGraphic" in2="BackgroundImageFix" result="shape"/>
<feGaussianBlur stdDeviation="20" result="effect1_foregroundBlur_5101_140"/>
</filter>
<filter id="filter2_f_5101_140" x="571.494" y="-17.6184" width="111.861" height="112.685" filterUnits="userSpaceOnUse" color-interpolation-filters="sRGB">
<feFlood flood-opacity="0" result="BackgroundImageFix"/>
<feBlend mode="normal" in="SourceGraphic" in2="BackgroundImageFix" result="shape"/>
<feGaussianBlur stdDeviation="20" result="effect1_foregroundBlur_5101_140"/>
</filter>
<filter id="filter3_d_5101_140" x="785.869" y="10.6511" width="46.6289" height="48.3606" filterUnits="userSpaceOnUse" color-interpolation-filters="sRGB">
<feFlood flood-opacity="0" result="BackgroundImageFix"/>
<feColorMatrix in="SourceAlpha" type="matrix" values="0 0 0 0 0 0 0 0 0 0 0 0 0 0 0 0 0 0 127 0" result="hardAlpha"/>
<feOffset/>
<feGaussianBlur stdDeviation="5"/>
<feComposite in2="hardAlpha" operator="out"/>
<feColorMatrix type="matrix" values="0 0 0 0 1 0 0 0 0 1 0 0 0 0 1 0 0 0 0.5 0"/>
<feBlend mode="normal" in2="BackgroundImageFix" result="effect1_dropShadow_5101_140"/>
<feBlend mode="normal" in="SourceGraphic" in2="effect1_dropShadow_5101_140" result="shape"/>
</filter>
<linearGradient id="paint0_linear_5101_140" x1="1311.24" y1="702" x2="1311.24" y2="809" gradientUnits="userSpaceOnUse">
<stop/>
<stop offset="1" stop-opacity="0"/>
</linearGradient>
<linearGradient id="paint1_linear_5101_140" x1="1147.24" y1="1031" x2="1207.24" y2="1031" gradientUnits="userSpaceOnUse">
<stop/>
<stop offset="1" stop-opacity="0"/>
</linearGradient>
<linearGradient id="paint2_linear_5101_140" x1="293.24" y1="1375" x2="353.24" y2="1375" gradientUnits="userSpaceOnUse">
<stop/>
<stop offset="1" stop-opacity="0"/>
</linearGradient>
<clipPath id="clip0_5101_140">
<rect width="1440" height="1122" fill="white"/>
</clipPath>
</defs>
</svg>
